M48
; DRILL file {KiCad 7.0.8} date Fri Mar 15 18:15:33 2024
; FORMAT={-:-/ absolute / inch / decimal}
; #@! TF.CreationDate,2024-03-15T18:15:33-06:00
; #@! TF.GenerationSoftware,Kicad,Pcbnew,7.0.8
; #@! TF.FileFunction,MixedPlating,1,2
FMAT,2
INCH
; #@! TA.AperFunction,Plated,PTH,ComponentDrill
T1C0.0276
; #@! TA.AperFunction,Plated,PTH,ComponentDrill
T2C0.0598
; #@! TA.AperFunction,Plated,PTH,ComponentDrill
T3C0.1063
%
G90
G05
T1
X4.8411Y-4.0587
X4.9396Y-4.0587
X5.038Y-4.1669
X5.1364Y-4.1669
X5.2348Y-4.0587
X5.3333Y-4.0587
X5.4317Y-4.1669
X5.5301Y-4.1669
X5.8254Y-4.0587
X5.9238Y-4.0587
X6.0222Y-4.1669
X6.1207Y-4.1669
X6.2191Y-4.0587
X6.3175Y-4.0587
X6.4159Y-4.1669
X6.5144Y-4.1669
T2
X4.8411Y-3.2417
X4.8411Y-4.4031
X5.038Y-3.2417
X5.038Y-4.4031
X5.2348Y-3.2417
X5.2348Y-4.4031
X5.4317Y-3.2417
X5.4317Y-4.4031
X5.6285Y-3.2417
X5.6285Y-4.4031
X5.8254Y-3.2417
X5.8254Y-4.4031
X6.0222Y-3.2417
X6.0222Y-4.4031
X6.2191Y-3.2417
X6.2191Y-4.4031
X6.4159Y-3.2417
X6.4159Y-4.4031
X6.6128Y-3.2417
X6.6128Y-4.4031
T3
X4.5852Y-3.0055
X4.5852Y-4.6591
X6.8687Y-3.0055
X6.8687Y-4.6591
T0
M30
