%TF.GenerationSoftware,KiCad,Pcbnew,7.0.8*%
%TF.CreationDate,2024-03-15T18:14:36-06:00*%
%TF.ProjectId,DIO_TVS_Protection,44494f5f-5456-4535-9f50-726f74656374,rev?*%
%TF.SameCoordinates,Original*%
%TF.FileFunction,Copper,L2,Bot*%
%TF.FilePolarity,Positive*%
%FSLAX46Y46*%
G04 Gerber Fmt 4.6, Leading zero omitted, Abs format (unit mm)*
G04 Created by KiCad (PCBNEW 7.0.8) date 2024-03-15 18:14:36*
%MOMM*%
%LPD*%
G01*
G04 APERTURE LIST*
%TA.AperFunction,ComponentPad*%
%ADD10R,3.000000X3.000000*%
%TD*%
%TA.AperFunction,ComponentPad*%
%ADD11C,3.000000*%
%TD*%
%TA.AperFunction,ComponentPad*%
%ADD12C,4.700000*%
%TD*%
%TA.AperFunction,ComponentPad*%
%ADD13C,1.400000*%
%TD*%
%TA.AperFunction,Conductor*%
%ADD14C,0.250000*%
%TD*%
G04 APERTURE END LIST*
D10*
%TO.P,J3,1,Pin_1*%
%TO.N,Net-(J1-Pin_1)*%
X122965000Y-82340000D03*
D11*
%TO.P,J3,2,Pin_2*%
%TO.N,Net-(J1-Pin_2)*%
X127965000Y-82340000D03*
%TO.P,J3,3,Pin_3*%
%TO.N,Net-(J1-Pin_3)*%
X132965000Y-82340000D03*
%TO.P,J3,4,Pin_4*%
%TO.N,Net-(J1-Pin_4)*%
X137965000Y-82340000D03*
%TO.P,J3,5,Pin_5*%
%TO.N,GND*%
X142965000Y-82340000D03*
%TD*%
D12*
%TO.P,REF\u002A\u002A,1*%
%TO.N,N/C*%
X174465000Y-76340000D03*
%TD*%
%TO.P,REF\u002A\u002A,1*%
%TO.N,N/C*%
X174465000Y-118340000D03*
%TD*%
%TO.P,REF\u002A\u002A,1*%
%TO.N,N/C*%
X116465000Y-118340000D03*
%TD*%
%TO.P,REF\u002A\u002A,1*%
%TO.N,N/C*%
X116465000Y-76340000D03*
%TD*%
D10*
%TO.P,J4,1,Pin_1*%
%TO.N,Net-(J2-Pin_1)*%
X147965000Y-82340000D03*
D11*
%TO.P,J4,2,Pin_2*%
%TO.N,Net-(J2-Pin_2)*%
X152965000Y-82340000D03*
%TO.P,J4,3,Pin_3*%
%TO.N,Net-(J2-Pin_3)*%
X157965000Y-82340000D03*
%TO.P,J4,4,Pin_4*%
%TO.N,Net-(J2-Pin_4)*%
X162965000Y-82340000D03*
%TO.P,J4,5,Pin_5*%
%TO.N,Net-(J4-Pin_5)*%
X167965000Y-82340000D03*
%TD*%
D10*
%TO.P,J2,1,Pin_1*%
%TO.N,Net-(J2-Pin_1)*%
X147965000Y-111840000D03*
D11*
%TO.P,J2,2,Pin_2*%
%TO.N,Net-(J2-Pin_2)*%
X152965000Y-111840000D03*
%TO.P,J2,3,Pin_3*%
%TO.N,Net-(J2-Pin_3)*%
X157965000Y-111840000D03*
%TO.P,J2,4,Pin_4*%
%TO.N,Net-(J2-Pin_4)*%
X162965000Y-111840000D03*
%TO.P,J2,5,Pin_5*%
%TO.N,GND*%
X167965000Y-111840000D03*
%TD*%
D10*
%TO.P,J1,1,Pin_1*%
%TO.N,Net-(J1-Pin_1)*%
X122965000Y-111840000D03*
D11*
%TO.P,J1,2,Pin_2*%
%TO.N,Net-(J1-Pin_2)*%
X127965000Y-111840000D03*
%TO.P,J1,3,Pin_3*%
%TO.N,Net-(J1-Pin_3)*%
X132965000Y-111840000D03*
%TO.P,J1,4,Pin_4*%
%TO.N,Net-(J1-Pin_4)*%
X137965000Y-111840000D03*
%TO.P,J1,5,Pin_5*%
%TO.N,GND*%
X142965000Y-111840000D03*
%TD*%
D13*
%TO.P,C8,1*%
%TO.N,Net-(J2-Pin_4)*%
X162965000Y-105840000D03*
%TO.P,C8,2*%
%TO.N,GND*%
X165465000Y-105840000D03*
%TD*%
%TO.P,C7,1*%
%TO.N,Net-(J2-Pin_3)*%
X157965000Y-103090000D03*
%TO.P,C7,2*%
%TO.N,GND*%
X160465000Y-103090000D03*
%TD*%
%TO.P,C6,1*%
%TO.N,Net-(J2-Pin_2)*%
X152965000Y-105840000D03*
%TO.P,C6,2*%
%TO.N,GND*%
X155465000Y-105840000D03*
%TD*%
%TO.P,C5,1*%
%TO.N,Net-(J2-Pin_1)*%
X147965000Y-103090000D03*
%TO.P,C5,2*%
%TO.N,GND*%
X150465000Y-103090000D03*
%TD*%
%TO.P,C4,1*%
%TO.N,Net-(J1-Pin_4)*%
X137965000Y-105840000D03*
%TO.P,C4,2*%
%TO.N,GND*%
X140465000Y-105840000D03*
%TD*%
%TO.P,C3,1*%
%TO.N,Net-(J1-Pin_3)*%
X132965000Y-103090000D03*
%TO.P,C3,2*%
%TO.N,GND*%
X135465000Y-103090000D03*
%TD*%
%TO.P,C2,1*%
%TO.N,Net-(J1-Pin_2)*%
X127965000Y-105840000D03*
%TO.P,C2,2*%
%TO.N,GND*%
X130465000Y-105840000D03*
%TD*%
%TO.P,C1,1*%
%TO.N,Net-(J1-Pin_1)*%
X122965000Y-103090000D03*
%TO.P,C1,2*%
%TO.N,GND*%
X125465000Y-103090000D03*
%TD*%
D14*
%TO.N,Net-(J2-Pin_4)*%
X162965000Y-105840000D02*
X162965000Y-82340000D01*
%TO.N,Net-(J2-Pin_3)*%
X157965000Y-103090000D02*
X157965000Y-82340000D01*
%TO.N,Net-(J2-Pin_2)*%
X152965000Y-105840000D02*
X152965000Y-82340000D01*
%TO.N,Net-(J2-Pin_1)*%
X147965000Y-103090000D02*
X147965000Y-82340000D01*
%TO.N,Net-(J1-Pin_4)*%
X137965000Y-105840000D02*
X137965000Y-82340000D01*
%TO.N,Net-(J1-Pin_3)*%
X132965000Y-103090000D02*
X132965000Y-82340000D01*
%TO.N,Net-(J1-Pin_2)*%
X127965000Y-105840000D02*
X127965000Y-82340000D01*
%TO.N,Net-(J1-Pin_1)*%
X122965000Y-103090000D02*
X122965000Y-82340000D01*
%TO.N,Net-(J2-Pin_4)*%
X162965000Y-111840000D02*
X162965000Y-105840000D01*
%TO.N,Net-(J2-Pin_3)*%
X157965000Y-111840000D02*
X157965000Y-103090000D01*
%TO.N,Net-(J2-Pin_2)*%
X152965000Y-111840000D02*
X152965000Y-105840000D01*
%TO.N,Net-(J2-Pin_1)*%
X147965000Y-111840000D02*
X147965000Y-103090000D01*
%TO.N,Net-(J1-Pin_4)*%
X137965000Y-111840000D02*
X137965000Y-105840000D01*
%TO.N,Net-(J1-Pin_3)*%
X132965000Y-111840000D02*
X132965000Y-103090000D01*
%TO.N,Net-(J1-Pin_2)*%
X127965000Y-111840000D02*
X127965000Y-105840000D01*
%TO.N,Net-(J1-Pin_1)*%
X122965000Y-111840000D02*
X122965000Y-103090000D01*
%TD*%
%TA.AperFunction,Conductor*%
%TO.N,GND*%
G36*
X177840674Y-72369799D02*
G01*
X177907684Y-72389577D01*
X177953366Y-72442444D01*
X177964500Y-72493799D01*
X177964500Y-86840070D01*
X177915175Y-121656176D01*
X177895395Y-121723187D01*
X177842527Y-121768867D01*
X177791175Y-121780000D01*
X113089500Y-121780000D01*
X113022461Y-121760315D01*
X112976706Y-121707511D01*
X112965500Y-121656000D01*
X112965500Y-118340003D01*
X113609669Y-118340003D01*
X113628976Y-118671484D01*
X113628977Y-118671495D01*
X113686631Y-118998467D01*
X113686634Y-118998481D01*
X113781866Y-119316580D01*
X113913379Y-119621461D01*
X113913385Y-119621474D01*
X114079406Y-119909031D01*
X114277678Y-120175356D01*
X114277683Y-120175362D01*
X114277690Y-120175371D01*
X114505553Y-120416893D01*
X114689689Y-120571400D01*
X114759912Y-120630325D01*
X114759920Y-120630331D01*
X115037330Y-120812787D01*
X115037334Y-120812789D01*
X115334061Y-120961811D01*
X115646082Y-121075377D01*
X115646088Y-121075378D01*
X115646090Y-121075379D01*
X115969161Y-121151949D01*
X115969168Y-121151950D01*
X115969177Y-121151952D01*
X116298977Y-121190500D01*
X116298984Y-121190500D01*
X116631016Y-121190500D01*
X116631023Y-121190500D01*
X116960823Y-121151952D01*
X116960832Y-121151949D01*
X116960838Y-121151949D01*
X117221445Y-121090183D01*
X117283918Y-121075377D01*
X117595939Y-120961811D01*
X117892666Y-120812789D01*
X118170085Y-120630327D01*
X118424447Y-120416893D01*
X118652310Y-120175371D01*
X118850594Y-119909030D01*
X119016617Y-119621470D01*
X119148133Y-119316581D01*
X119243365Y-118998485D01*
X119301024Y-118671484D01*
X119320331Y-118340003D01*
X171609669Y-118340003D01*
X171628976Y-118671484D01*
X171628977Y-118671495D01*
X171686631Y-118998467D01*
X171686634Y-118998481D01*
X171781866Y-119316580D01*
X171913379Y-119621461D01*
X171913385Y-119621474D01*
X172079406Y-119909031D01*
X172277678Y-120175356D01*
X172277683Y-120175362D01*
X172277690Y-120175371D01*
X172505553Y-120416893D01*
X172689689Y-120571400D01*
X172759912Y-120630325D01*
X172759920Y-120630331D01*
X173037330Y-120812787D01*
X173037334Y-120812789D01*
X173334061Y-120961811D01*
X173646082Y-121075377D01*
X173646088Y-121075378D01*
X173646090Y-121075379D01*
X173969161Y-121151949D01*
X173969168Y-121151950D01*
X173969177Y-121151952D01*
X174298977Y-121190500D01*
X174298984Y-121190500D01*
X174631016Y-121190500D01*
X174631023Y-121190500D01*
X174960823Y-121151952D01*
X174960832Y-121151949D01*
X174960838Y-121151949D01*
X175221445Y-121090183D01*
X175283918Y-121075377D01*
X175595939Y-120961811D01*
X175892666Y-120812789D01*
X176170085Y-120630327D01*
X176424447Y-120416893D01*
X176652310Y-120175371D01*
X176850594Y-119909030D01*
X177016617Y-119621470D01*
X177148133Y-119316581D01*
X177243365Y-118998485D01*
X177301024Y-118671484D01*
X177320331Y-118340000D01*
X177301024Y-118008516D01*
X177243365Y-117681515D01*
X177148133Y-117363419D01*
X177016617Y-117058530D01*
X176850594Y-116770970D01*
X176850593Y-116770968D01*
X176652321Y-116504643D01*
X176652314Y-116504635D01*
X176652310Y-116504629D01*
X176424447Y-116263107D01*
X176262153Y-116126926D01*
X176170087Y-116049674D01*
X176170079Y-116049668D01*
X175892669Y-115867212D01*
X175595946Y-115718192D01*
X175595940Y-115718189D01*
X175283930Y-115604627D01*
X175283909Y-115604620D01*
X174960838Y-115528050D01*
X174960823Y-115528048D01*
X174631023Y-115489500D01*
X174298977Y-115489500D01*
X174010402Y-115523229D01*
X173969176Y-115528048D01*
X173969161Y-115528050D01*
X173646090Y-115604620D01*
X173646069Y-115604627D01*
X173334059Y-115718189D01*
X173334053Y-115718192D01*
X173037330Y-115867212D01*
X172759920Y-116049668D01*
X172759912Y-116049674D01*
X172553936Y-116222508D01*
X172505553Y-116263107D01*
X172277690Y-116504629D01*
X172277687Y-116504632D01*
X172277685Y-116504635D01*
X172277678Y-116504643D01*
X172079406Y-116770968D01*
X171913385Y-117058525D01*
X171913379Y-117058538D01*
X171781866Y-117363419D01*
X171686634Y-117681518D01*
X171686631Y-117681532D01*
X171628977Y-118008504D01*
X171628976Y-118008515D01*
X171609669Y-118339996D01*
X171609669Y-118340003D01*
X119320331Y-118340003D01*
X119320331Y-118340000D01*
X119301024Y-118008516D01*
X119243365Y-117681515D01*
X119148133Y-117363419D01*
X119016617Y-117058530D01*
X118850594Y-116770970D01*
X118850593Y-116770968D01*
X118652321Y-116504643D01*
X118652314Y-116504635D01*
X118652310Y-116504629D01*
X118424447Y-116263107D01*
X118262153Y-116126926D01*
X118170087Y-116049674D01*
X118170079Y-116049668D01*
X117892669Y-115867212D01*
X117595946Y-115718192D01*
X117595940Y-115718189D01*
X117283930Y-115604627D01*
X117283909Y-115604620D01*
X116960838Y-115528050D01*
X116960823Y-115528048D01*
X116631023Y-115489500D01*
X116298977Y-115489500D01*
X116010402Y-115523229D01*
X115969176Y-115528048D01*
X115969161Y-115528050D01*
X115646090Y-115604620D01*
X115646069Y-115604627D01*
X115334059Y-115718189D01*
X115334053Y-115718192D01*
X115037330Y-115867212D01*
X114759920Y-116049668D01*
X114759912Y-116049674D01*
X114553936Y-116222508D01*
X114505553Y-116263107D01*
X114277690Y-116504629D01*
X114277687Y-116504632D01*
X114277685Y-116504635D01*
X114277678Y-116504643D01*
X114079406Y-116770968D01*
X113913385Y-117058525D01*
X113913379Y-117058538D01*
X113781866Y-117363419D01*
X113686634Y-117681518D01*
X113686631Y-117681532D01*
X113628977Y-118008504D01*
X113628976Y-118008515D01*
X113609669Y-118339996D01*
X113609669Y-118340003D01*
X112965500Y-118340003D01*
X112965500Y-113387870D01*
X120964500Y-113387870D01*
X120964501Y-113387876D01*
X120970908Y-113447483D01*
X121021202Y-113582328D01*
X121021206Y-113582335D01*
X121107452Y-113697544D01*
X121107455Y-113697547D01*
X121222664Y-113783793D01*
X121222671Y-113783797D01*
X121357517Y-113834091D01*
X121357516Y-113834091D01*
X121364444Y-113834835D01*
X121417127Y-113840500D01*
X124512872Y-113840499D01*
X124572483Y-113834091D01*
X124707331Y-113783796D01*
X124822546Y-113697546D01*
X124908796Y-113582331D01*
X124959091Y-113447483D01*
X124965500Y-113387873D01*
X124965500Y-111840001D01*
X125959390Y-111840001D01*
X125979804Y-112125433D01*
X126040628Y-112405037D01*
X126040630Y-112405043D01*
X126040631Y-112405046D01*
X126113345Y-112600000D01*
X126140635Y-112673166D01*
X126277770Y-112924309D01*
X126277775Y-112924317D01*
X126449254Y-113153387D01*
X126449270Y-113153405D01*
X126651594Y-113355729D01*
X126651612Y-113355745D01*
X126880682Y-113527224D01*
X126880690Y-113527229D01*
X127131833Y-113664364D01*
X127131832Y-113664364D01*
X127131836Y-113664365D01*
X127131839Y-113664367D01*
X127399954Y-113764369D01*
X127399960Y-113764370D01*
X127399962Y-113764371D01*
X127679566Y-113825195D01*
X127679568Y-113825195D01*
X127679572Y-113825196D01*
X127933220Y-113843337D01*
X127964999Y-113845610D01*
X127965000Y-113845610D01*
X127965001Y-113845610D01*
X127993595Y-113843564D01*
X128250428Y-113825196D01*
X128440742Y-113783796D01*
X128530037Y-113764371D01*
X128530037Y-113764370D01*
X128530046Y-113764369D01*
X128798161Y-113664367D01*
X129049315Y-113527226D01*
X129278395Y-113355739D01*
X129480739Y-113153395D01*
X129652226Y-112924315D01*
X129789367Y-112673161D01*
X129889369Y-112405046D01*
X129950196Y-112125428D01*
X129970610Y-111840001D01*
X130959390Y-111840001D01*
X130979804Y-112125433D01*
X131040628Y-112405037D01*
X131040630Y-112405043D01*
X131040631Y-112405046D01*
X131113345Y-112600000D01*
X131140635Y-112673166D01*
X131277770Y-112924309D01*
X131277775Y-112924317D01*
X131449254Y-113153387D01*
X131449270Y-113153405D01*
X131651594Y-113355729D01*
X131651612Y-113355745D01*
X131880682Y-113527224D01*
X131880690Y-113527229D01*
X132131833Y-113664364D01*
X132131832Y-113664364D01*
X132131836Y-113664365D01*
X132131839Y-113664367D01*
X132399954Y-113764369D01*
X132399960Y-113764370D01*
X132399962Y-113764371D01*
X132679566Y-113825195D01*
X132679568Y-113825195D01*
X132679572Y-113825196D01*
X132933220Y-113843337D01*
X132964999Y-113845610D01*
X132965000Y-113845610D01*
X132965001Y-113845610D01*
X132993595Y-113843564D01*
X133250428Y-113825196D01*
X133440742Y-113783796D01*
X133530037Y-113764371D01*
X133530037Y-113764370D01*
X133530046Y-113764369D01*
X133798161Y-113664367D01*
X134049315Y-113527226D01*
X134278395Y-113355739D01*
X134480739Y-113153395D01*
X134652226Y-112924315D01*
X134789367Y-112673161D01*
X134889369Y-112405046D01*
X134950196Y-112125428D01*
X134970610Y-111840001D01*
X135959390Y-111840001D01*
X135979804Y-112125433D01*
X136040628Y-112405037D01*
X136040630Y-112405043D01*
X136040631Y-112405046D01*
X136113345Y-112600000D01*
X136140635Y-112673166D01*
X136277770Y-112924309D01*
X136277775Y-112924317D01*
X136449254Y-113153387D01*
X136449270Y-113153405D01*
X136651594Y-113355729D01*
X136651612Y-113355745D01*
X136880682Y-113527224D01*
X136880690Y-113527229D01*
X137131833Y-113664364D01*
X137131832Y-113664364D01*
X137131836Y-113664365D01*
X137131839Y-113664367D01*
X137399954Y-113764369D01*
X137399960Y-113764370D01*
X137399962Y-113764371D01*
X137679566Y-113825195D01*
X137679568Y-113825195D01*
X137679572Y-113825196D01*
X137933220Y-113843337D01*
X137964999Y-113845610D01*
X137965000Y-113845610D01*
X137965001Y-113845610D01*
X137993595Y-113843564D01*
X138250428Y-113825196D01*
X138440742Y-113783796D01*
X138530037Y-113764371D01*
X138530037Y-113764370D01*
X138530046Y-113764369D01*
X138798161Y-113664367D01*
X139049315Y-113527226D01*
X139278395Y-113355739D01*
X139480739Y-113153395D01*
X139652226Y-112924315D01*
X139789367Y-112673161D01*
X139889369Y-112405046D01*
X139950196Y-112125428D01*
X139970610Y-111840001D01*
X140959891Y-111840001D01*
X140980300Y-112125362D01*
X141041109Y-112404895D01*
X141141091Y-112672958D01*
X141278191Y-112924038D01*
X141278196Y-112924046D01*
X141384882Y-113066561D01*
X141384883Y-113066562D01*
X142280195Y-112171250D01*
X142302340Y-112222587D01*
X142408433Y-112365094D01*
X142544530Y-112479294D01*
X142634216Y-112524335D01*
X141738436Y-113420115D01*
X141880960Y-113526807D01*
X141880961Y-113526808D01*
X142132042Y-113663908D01*
X142132041Y-113663908D01*
X142400104Y-113763890D01*
X142679637Y-113824699D01*
X142964999Y-113845109D01*
X142965001Y-113845109D01*
X143250362Y-113824699D01*
X143529895Y-113763890D01*
X143797958Y-113663908D01*
X144049047Y-113526803D01*
X144191561Y-113420116D01*
X144191562Y-113420115D01*
X144159317Y-113387870D01*
X145964500Y-113387870D01*
X145964501Y-113387876D01*
X145970908Y-113447483D01*
X146021202Y-113582328D01*
X146021206Y-113582335D01*
X146107452Y-113697544D01*
X146107455Y-113697547D01*
X146222664Y-113783793D01*
X146222671Y-113783797D01*
X146357517Y-113834091D01*
X146357516Y-113834091D01*
X146364444Y-113834835D01*
X146417127Y-113840500D01*
X149512872Y-113840499D01*
X149572483Y-113834091D01*
X149707331Y-113783796D01*
X149822546Y-113697546D01*
X149908796Y-113582331D01*
X149959091Y-113447483D01*
X149965500Y-113387873D01*
X149965500Y-111840001D01*
X150959390Y-111840001D01*
X150979804Y-112125433D01*
X151040628Y-112405037D01*
X151040630Y-112405043D01*
X151040631Y-112405046D01*
X151113345Y-112600000D01*
X151140635Y-112673166D01*
X151277770Y-112924309D01*
X151277775Y-112924317D01*
X151449254Y-113153387D01*
X151449270Y-113153405D01*
X151651594Y-113355729D01*
X151651612Y-113355745D01*
X151880682Y-113527224D01*
X151880690Y-113527229D01*
X152131833Y-113664364D01*
X152131832Y-113664364D01*
X152131836Y-113664365D01*
X152131839Y-113664367D01*
X152399954Y-113764369D01*
X152399960Y-113764370D01*
X152399962Y-113764371D01*
X152679566Y-113825195D01*
X152679568Y-113825195D01*
X152679572Y-113825196D01*
X152933220Y-113843337D01*
X152964999Y-113845610D01*
X152965000Y-113845610D01*
X152965001Y-113845610D01*
X152993595Y-113843564D01*
X153250428Y-113825196D01*
X153440742Y-113783796D01*
X153530037Y-113764371D01*
X153530037Y-113764370D01*
X153530046Y-113764369D01*
X153798161Y-113664367D01*
X154049315Y-113527226D01*
X154278395Y-113355739D01*
X154480739Y-113153395D01*
X154652226Y-112924315D01*
X154789367Y-112673161D01*
X154889369Y-112405046D01*
X154950196Y-112125428D01*
X154970610Y-111840001D01*
X155959390Y-111840001D01*
X155979804Y-112125433D01*
X156040628Y-112405037D01*
X156040630Y-112405043D01*
X156040631Y-112405046D01*
X156113345Y-112600000D01*
X156140635Y-112673166D01*
X156277770Y-112924309D01*
X156277775Y-112924317D01*
X156449254Y-113153387D01*
X156449270Y-113153405D01*
X156651594Y-113355729D01*
X156651612Y-113355745D01*
X156880682Y-113527224D01*
X156880690Y-113527229D01*
X157131833Y-113664364D01*
X157131832Y-113664364D01*
X157131836Y-113664365D01*
X157131839Y-113664367D01*
X157399954Y-113764369D01*
X157399960Y-113764370D01*
X157399962Y-113764371D01*
X157679566Y-113825195D01*
X157679568Y-113825195D01*
X157679572Y-113825196D01*
X157933220Y-113843337D01*
X157964999Y-113845610D01*
X157965000Y-113845610D01*
X157965001Y-113845610D01*
X157993595Y-113843564D01*
X158250428Y-113825196D01*
X158440742Y-113783796D01*
X158530037Y-113764371D01*
X158530037Y-113764370D01*
X158530046Y-113764369D01*
X158798161Y-113664367D01*
X159049315Y-113527226D01*
X159278395Y-113355739D01*
X159480739Y-113153395D01*
X159652226Y-112924315D01*
X159789367Y-112673161D01*
X159889369Y-112405046D01*
X159950196Y-112125428D01*
X159970610Y-111840001D01*
X160959390Y-111840001D01*
X160979804Y-112125433D01*
X161040628Y-112405037D01*
X161040630Y-112405043D01*
X161040631Y-112405046D01*
X161113345Y-112600000D01*
X161140635Y-112673166D01*
X161277770Y-112924309D01*
X161277775Y-112924317D01*
X161449254Y-113153387D01*
X161449270Y-113153405D01*
X161651594Y-113355729D01*
X161651612Y-113355745D01*
X161880682Y-113527224D01*
X161880690Y-113527229D01*
X162131833Y-113664364D01*
X162131832Y-113664364D01*
X162131836Y-113664365D01*
X162131839Y-113664367D01*
X162399954Y-113764369D01*
X162399960Y-113764370D01*
X162399962Y-113764371D01*
X162679566Y-113825195D01*
X162679568Y-113825195D01*
X162679572Y-113825196D01*
X162933220Y-113843337D01*
X162964999Y-113845610D01*
X162965000Y-113845610D01*
X162965001Y-113845610D01*
X162993595Y-113843564D01*
X163250428Y-113825196D01*
X163440742Y-113783796D01*
X163530037Y-113764371D01*
X163530037Y-113764370D01*
X163530046Y-113764369D01*
X163798161Y-113664367D01*
X164049315Y-113527226D01*
X164278395Y-113355739D01*
X164480739Y-113153395D01*
X164652226Y-112924315D01*
X164789367Y-112673161D01*
X164889369Y-112405046D01*
X164950196Y-112125428D01*
X164970610Y-111840001D01*
X165959891Y-111840001D01*
X165980300Y-112125362D01*
X166041109Y-112404895D01*
X166141091Y-112672958D01*
X166278191Y-112924038D01*
X166278196Y-112924046D01*
X166384882Y-113066561D01*
X166384883Y-113066562D01*
X167280195Y-112171250D01*
X167302340Y-112222587D01*
X167408433Y-112365094D01*
X167544530Y-112479294D01*
X167634216Y-112524335D01*
X166738436Y-113420115D01*
X166880960Y-113526807D01*
X166880961Y-113526808D01*
X167132042Y-113663908D01*
X167132041Y-113663908D01*
X167400104Y-113763890D01*
X167679637Y-113824699D01*
X167964999Y-113845109D01*
X167965001Y-113845109D01*
X168250362Y-113824699D01*
X168529895Y-113763890D01*
X168797958Y-113663908D01*
X169049047Y-113526803D01*
X169191561Y-113420116D01*
X169191562Y-113420115D01*
X168298748Y-112527300D01*
X168308409Y-112523784D01*
X168456844Y-112426157D01*
X168578764Y-112296930D01*
X168650768Y-112172215D01*
X169545115Y-113066562D01*
X169545116Y-113066561D01*
X169651803Y-112924047D01*
X169788908Y-112672958D01*
X169888890Y-112404895D01*
X169949699Y-112125362D01*
X169970109Y-111840001D01*
X169970109Y-111839998D01*
X169949699Y-111554637D01*
X169888890Y-111275104D01*
X169788908Y-111007041D01*
X169651808Y-110755961D01*
X169651807Y-110755960D01*
X169545115Y-110613436D01*
X168649803Y-111508747D01*
X168627660Y-111457413D01*
X168521567Y-111314906D01*
X168385470Y-111200706D01*
X168295782Y-111155663D01*
X169191562Y-110259883D01*
X169191561Y-110259882D01*
X169049046Y-110153196D01*
X169049038Y-110153191D01*
X168797957Y-110016091D01*
X168797958Y-110016091D01*
X168529895Y-109916109D01*
X168250362Y-109855300D01*
X167965001Y-109834891D01*
X167964999Y-109834891D01*
X167679637Y-109855300D01*
X167400104Y-109916109D01*
X167132041Y-110016091D01*
X166880961Y-110153191D01*
X166880953Y-110153196D01*
X166738437Y-110259882D01*
X166738436Y-110259883D01*
X167631252Y-111152699D01*
X167621591Y-111156216D01*
X167473156Y-111253843D01*
X167351236Y-111383070D01*
X167279231Y-111507784D01*
X166384883Y-110613436D01*
X166384882Y-110613437D01*
X166278196Y-110755953D01*
X166278191Y-110755961D01*
X166141091Y-111007041D01*
X166041109Y-111275104D01*
X165980300Y-111554637D01*
X165959891Y-111839998D01*
X165959891Y-111840001D01*
X164970610Y-111840001D01*
X164970610Y-111840000D01*
X164950196Y-111554572D01*
X164946358Y-111536930D01*
X164889371Y-111274962D01*
X164889370Y-111274960D01*
X164889369Y-111274954D01*
X164789367Y-111006839D01*
X164652372Y-110755953D01*
X164652229Y-110755690D01*
X164652224Y-110755682D01*
X164480745Y-110526612D01*
X164480729Y-110526594D01*
X164278405Y-110324270D01*
X164278387Y-110324254D01*
X164049317Y-110152775D01*
X164049309Y-110152770D01*
X163798166Y-110015635D01*
X163671166Y-109968266D01*
X163615232Y-109926394D01*
X163590816Y-109860929D01*
X163590500Y-109852084D01*
X163590500Y-106933765D01*
X163610185Y-106866726D01*
X163630367Y-106846880D01*
X164811672Y-106846880D01*
X164927821Y-106918797D01*
X164927822Y-106918798D01*
X165135195Y-106999134D01*
X165353807Y-107040000D01*
X165576193Y-107040000D01*
X165794809Y-106999133D01*
X166002168Y-106918801D01*
X166002181Y-106918795D01*
X166118326Y-106846879D01*
X165465001Y-106193553D01*
X165465000Y-106193553D01*
X164811672Y-106846879D01*
X164811672Y-106846880D01*
X163630367Y-106846880D01*
X163649220Y-106828340D01*
X163691562Y-106802124D01*
X163855981Y-106652236D01*
X163990058Y-106474689D01*
X164089229Y-106275528D01*
X164095994Y-106251750D01*
X164133271Y-106192661D01*
X164196580Y-106163102D01*
X164265820Y-106172463D01*
X164319007Y-106217772D01*
X164334525Y-106251753D01*
X164341236Y-106275342D01*
X164341239Y-106275348D01*
X164440369Y-106474428D01*
X164456137Y-106495308D01*
X164456138Y-106495308D01*
X165082145Y-105869302D01*
X165111372Y-105869302D01*
X165140047Y-105982538D01*
X165203936Y-106080327D01*
X165296115Y-106152072D01*
X165406595Y-106190000D01*
X165494005Y-106190000D01*
X165580216Y-106175614D01*
X165682947Y-106120019D01*
X165762060Y-106034079D01*
X165808982Y-105927108D01*
X165816200Y-105840000D01*
X165818553Y-105840000D01*
X166473861Y-106495308D01*
X166489631Y-106474425D01*
X166489633Y-106474422D01*
X166588759Y-106275350D01*
X166649621Y-106061439D01*
X166670141Y-105840000D01*
X166670141Y-105839999D01*
X166649621Y-105618560D01*
X166588759Y-105404649D01*
X166489635Y-105205580D01*
X166489630Y-105205572D01*
X166473860Y-105184690D01*
X165818553Y-105839999D01*
X165818553Y-105840000D01*
X165816200Y-105840000D01*
X165818628Y-105810698D01*
X165789953Y-105697462D01*
X165726064Y-105599673D01*
X165633885Y-105527928D01*
X165523405Y-105490000D01*
X165435995Y-105490000D01*
X165349784Y-105504386D01*
X165247053Y-105559981D01*
X165167940Y-105645921D01*
X165121018Y-105752892D01*
X165111372Y-105869302D01*
X165082145Y-105869302D01*
X165111447Y-105840000D01*
X164456138Y-105184691D01*
X164456137Y-105184691D01*
X164440368Y-105205574D01*
X164341239Y-105404651D01*
X164341238Y-105404652D01*
X164334525Y-105428248D01*
X164297245Y-105487340D01*
X164233935Y-105516898D01*
X164164696Y-105507535D01*
X164111510Y-105462224D01*
X164095995Y-105428253D01*
X164089229Y-105404472D01*
X163990188Y-105205572D01*
X163990061Y-105205316D01*
X163990056Y-105205308D01*
X163855979Y-105027761D01*
X163691563Y-104877877D01*
X163691562Y-104877876D01*
X163649222Y-104851660D01*
X163632603Y-104833119D01*
X164811671Y-104833119D01*
X165465000Y-105486447D01*
X165465001Y-105486447D01*
X166118327Y-104833119D01*
X166002178Y-104761202D01*
X166002177Y-104761201D01*
X165794804Y-104680865D01*
X165576193Y-104640000D01*
X165353807Y-104640000D01*
X165135195Y-104680865D01*
X164927824Y-104761200D01*
X164927823Y-104761201D01*
X164811671Y-104833119D01*
X163632603Y-104833119D01*
X163602587Y-104799631D01*
X163590500Y-104746233D01*
X163590500Y-84327914D01*
X163610185Y-84260875D01*
X163662989Y-84215120D01*
X163671143Y-84211741D01*
X163798161Y-84164367D01*
X164049315Y-84027226D01*
X164278395Y-83855739D01*
X164480739Y-83653395D01*
X164652226Y-83424315D01*
X164789367Y-83173161D01*
X164889369Y-82905046D01*
X164950196Y-82625428D01*
X164970610Y-82340001D01*
X165959390Y-82340001D01*
X165979804Y-82625433D01*
X166040628Y-82905037D01*
X166040630Y-82905043D01*
X166040631Y-82905046D01*
X166113345Y-83100000D01*
X166140635Y-83173166D01*
X166277770Y-83424309D01*
X166277775Y-83424317D01*
X166449254Y-83653387D01*
X166449270Y-83653405D01*
X166651594Y-83855729D01*
X166651612Y-83855745D01*
X166880682Y-84027224D01*
X166880690Y-84027229D01*
X167131833Y-84164364D01*
X167131832Y-84164364D01*
X167131836Y-84164365D01*
X167131839Y-84164367D01*
X167399954Y-84264369D01*
X167399960Y-84264370D01*
X167399962Y-84264371D01*
X167679566Y-84325195D01*
X167679568Y-84325195D01*
X167679572Y-84325196D01*
X167933220Y-84343337D01*
X167964999Y-84345610D01*
X167965000Y-84345610D01*
X167965001Y-84345610D01*
X167993595Y-84343564D01*
X168250428Y-84325196D01*
X168440742Y-84283796D01*
X168530037Y-84264371D01*
X168530037Y-84264370D01*
X168530046Y-84264369D01*
X168798161Y-84164367D01*
X169049315Y-84027226D01*
X169278395Y-83855739D01*
X169480739Y-83653395D01*
X169652226Y-83424315D01*
X169789367Y-83173161D01*
X169889369Y-82905046D01*
X169950196Y-82625428D01*
X169970610Y-82340000D01*
X169950196Y-82054572D01*
X169946358Y-82036930D01*
X169889371Y-81774962D01*
X169889370Y-81774960D01*
X169889369Y-81774954D01*
X169789367Y-81506839D01*
X169652372Y-81255953D01*
X169652229Y-81255690D01*
X169652224Y-81255682D01*
X169480745Y-81026612D01*
X169480729Y-81026594D01*
X169278405Y-80824270D01*
X169278387Y-80824254D01*
X169049317Y-80652775D01*
X169049309Y-80652770D01*
X168798166Y-80515635D01*
X168798167Y-80515635D01*
X168690915Y-80475632D01*
X168530046Y-80415631D01*
X168530043Y-80415630D01*
X168530037Y-80415628D01*
X168250433Y-80354804D01*
X167965001Y-80334390D01*
X167964999Y-80334390D01*
X167679566Y-80354804D01*
X167399962Y-80415628D01*
X167131833Y-80515635D01*
X166880690Y-80652770D01*
X166880682Y-80652775D01*
X166651612Y-80824254D01*
X166651594Y-80824270D01*
X166449270Y-81026594D01*
X166449254Y-81026612D01*
X166277775Y-81255682D01*
X166277770Y-81255690D01*
X166140635Y-81506833D01*
X166040628Y-81774962D01*
X165979804Y-82054566D01*
X165959390Y-82339998D01*
X165959390Y-82340001D01*
X164970610Y-82340001D01*
X164970610Y-82340000D01*
X164950196Y-82054572D01*
X164946358Y-82036930D01*
X164889371Y-81774962D01*
X164889370Y-81774960D01*
X164889369Y-81774954D01*
X164789367Y-81506839D01*
X164652372Y-81255953D01*
X164652229Y-81255690D01*
X164652224Y-81255682D01*
X164480745Y-81026612D01*
X164480729Y-81026594D01*
X164278405Y-80824270D01*
X164278387Y-80824254D01*
X164049317Y-80652775D01*
X164049309Y-80652770D01*
X163798166Y-80515635D01*
X163798167Y-80515635D01*
X163690915Y-80475632D01*
X163530046Y-80415631D01*
X163530043Y-80415630D01*
X163530037Y-80415628D01*
X163250433Y-80354804D01*
X162965001Y-80334390D01*
X162964999Y-80334390D01*
X162679566Y-80354804D01*
X162399962Y-80415628D01*
X162131833Y-80515635D01*
X161880690Y-80652770D01*
X161880682Y-80652775D01*
X161651612Y-80824254D01*
X161651594Y-80824270D01*
X161449270Y-81026594D01*
X161449254Y-81026612D01*
X161277775Y-81255682D01*
X161277770Y-81255690D01*
X161140635Y-81506833D01*
X161040628Y-81774962D01*
X160979804Y-82054566D01*
X160959390Y-82339998D01*
X160959390Y-82340001D01*
X160979804Y-82625433D01*
X161040628Y-82905037D01*
X161040630Y-82905043D01*
X161040631Y-82905046D01*
X161113345Y-83100000D01*
X161140635Y-83173166D01*
X161277770Y-83424309D01*
X161277775Y-83424317D01*
X161449254Y-83653387D01*
X161449270Y-83653405D01*
X161651594Y-83855729D01*
X161651612Y-83855745D01*
X161880682Y-84027224D01*
X161880690Y-84027229D01*
X162131833Y-84164364D01*
X162131836Y-84164366D01*
X162131839Y-84164367D01*
X162258835Y-84211733D01*
X162314767Y-84253603D01*
X162339184Y-84319067D01*
X162339500Y-84327914D01*
X162339500Y-104746233D01*
X162319815Y-104813272D01*
X162280778Y-104851660D01*
X162238436Y-104877877D01*
X162074020Y-105027761D01*
X161939943Y-105205308D01*
X161939938Y-105205316D01*
X161840775Y-105404461D01*
X161840769Y-105404476D01*
X161779885Y-105618462D01*
X161779884Y-105618464D01*
X161759357Y-105839999D01*
X161759357Y-105840000D01*
X161779884Y-106061535D01*
X161779885Y-106061537D01*
X161840769Y-106275523D01*
X161840775Y-106275538D01*
X161939938Y-106474683D01*
X161939943Y-106474691D01*
X162074020Y-106652238D01*
X162238433Y-106802120D01*
X162238435Y-106802122D01*
X162238437Y-106802123D01*
X162238438Y-106802124D01*
X162280778Y-106828339D01*
X162327412Y-106880364D01*
X162339500Y-106933765D01*
X162339500Y-109852084D01*
X162319815Y-109919123D01*
X162267011Y-109964878D01*
X162258834Y-109968266D01*
X162131833Y-110015635D01*
X161880690Y-110152770D01*
X161880682Y-110152775D01*
X161651612Y-110324254D01*
X161651594Y-110324270D01*
X161449270Y-110526594D01*
X161449254Y-110526612D01*
X161277775Y-110755682D01*
X161277770Y-110755690D01*
X161140635Y-111006833D01*
X161040628Y-111274962D01*
X160979804Y-111554566D01*
X160959390Y-111839998D01*
X160959390Y-111840001D01*
X159970610Y-111840001D01*
X159970610Y-111840000D01*
X159950196Y-111554572D01*
X159946358Y-111536930D01*
X159889371Y-111274962D01*
X159889370Y-111274960D01*
X159889369Y-111274954D01*
X159789367Y-111006839D01*
X159652372Y-110755953D01*
X159652229Y-110755690D01*
X159652224Y-110755682D01*
X159480745Y-110526612D01*
X159480729Y-110526594D01*
X159278405Y-110324270D01*
X159278387Y-110324254D01*
X159049317Y-110152775D01*
X159049309Y-110152770D01*
X158798166Y-110015635D01*
X158671166Y-109968266D01*
X158615232Y-109926394D01*
X158590816Y-109860929D01*
X158590500Y-109852084D01*
X158590500Y-104183765D01*
X158610185Y-104116726D01*
X158630367Y-104096880D01*
X159811672Y-104096880D01*
X159927821Y-104168797D01*
X159927822Y-104168798D01*
X160135195Y-104249134D01*
X160353807Y-104290000D01*
X160576193Y-104290000D01*
X160794809Y-104249133D01*
X161002168Y-104168801D01*
X161002181Y-104168795D01*
X161118326Y-104096879D01*
X160465001Y-103443553D01*
X160465000Y-103443553D01*
X159811672Y-104096879D01*
X159811672Y-104096880D01*
X158630367Y-104096880D01*
X158649220Y-104078340D01*
X158691562Y-104052124D01*
X158855981Y-103902236D01*
X158990058Y-103724689D01*
X159089229Y-103525528D01*
X159095994Y-103501750D01*
X159133271Y-103442661D01*
X159196580Y-103413102D01*
X159265820Y-103422463D01*
X159319007Y-103467772D01*
X159334525Y-103501753D01*
X159341236Y-103525342D01*
X159341239Y-103525348D01*
X159440369Y-103724428D01*
X159456137Y-103745308D01*
X159456138Y-103745308D01*
X160082145Y-103119302D01*
X160111372Y-103119302D01*
X160140047Y-103232538D01*
X160203936Y-103330327D01*
X160296115Y-103402072D01*
X160406595Y-103440000D01*
X160494005Y-103440000D01*
X160580216Y-103425614D01*
X160682947Y-103370019D01*
X160762060Y-103284079D01*
X160808982Y-103177108D01*
X160816200Y-103090000D01*
X160818553Y-103090000D01*
X161473861Y-103745308D01*
X161489631Y-103724425D01*
X161489633Y-103724422D01*
X161588759Y-103525350D01*
X161649621Y-103311439D01*
X161670141Y-103090000D01*
X161670141Y-103089999D01*
X161649621Y-102868560D01*
X161588759Y-102654649D01*
X161489635Y-102455580D01*
X161489630Y-102455572D01*
X161473860Y-102434690D01*
X160818553Y-103089999D01*
X160818553Y-103090000D01*
X160816200Y-103090000D01*
X160818628Y-103060698D01*
X160789953Y-102947462D01*
X160726064Y-102849673D01*
X160633885Y-102777928D01*
X160523405Y-102740000D01*
X160435995Y-102740000D01*
X160349784Y-102754386D01*
X160247053Y-102809981D01*
X160167940Y-102895921D01*
X160121018Y-103002892D01*
X160111372Y-103119302D01*
X160082145Y-103119302D01*
X160111447Y-103090000D01*
X159456138Y-102434691D01*
X159456137Y-102434691D01*
X159440368Y-102455574D01*
X159341239Y-102654651D01*
X159341238Y-102654652D01*
X159334525Y-102678248D01*
X159297245Y-102737340D01*
X159233935Y-102766898D01*
X159164696Y-102757535D01*
X159111510Y-102712224D01*
X159095995Y-102678253D01*
X159089229Y-102654472D01*
X158990188Y-102455572D01*
X158990061Y-102455316D01*
X158990056Y-102455308D01*
X158855979Y-102277761D01*
X158691563Y-102127877D01*
X158691562Y-102127876D01*
X158649222Y-102101660D01*
X158632603Y-102083119D01*
X159811671Y-102083119D01*
X160465000Y-102736447D01*
X160465001Y-102736447D01*
X161118327Y-102083119D01*
X161002178Y-102011202D01*
X161002177Y-102011201D01*
X160794804Y-101930865D01*
X160576193Y-101890000D01*
X160353807Y-101890000D01*
X160135195Y-101930865D01*
X159927824Y-102011200D01*
X159927823Y-102011201D01*
X159811671Y-102083119D01*
X158632603Y-102083119D01*
X158602587Y-102049631D01*
X158590500Y-101996233D01*
X158590500Y-84327914D01*
X158610185Y-84260875D01*
X158662989Y-84215120D01*
X158671143Y-84211741D01*
X158798161Y-84164367D01*
X159049315Y-84027226D01*
X159278395Y-83855739D01*
X159480739Y-83653395D01*
X159652226Y-83424315D01*
X159789367Y-83173161D01*
X159889369Y-82905046D01*
X159950196Y-82625428D01*
X159970610Y-82340000D01*
X159950196Y-82054572D01*
X159946358Y-82036930D01*
X159889371Y-81774962D01*
X159889370Y-81774960D01*
X159889369Y-81774954D01*
X159789367Y-81506839D01*
X159652372Y-81255953D01*
X159652229Y-81255690D01*
X159652224Y-81255682D01*
X159480745Y-81026612D01*
X159480729Y-81026594D01*
X159278405Y-80824270D01*
X159278387Y-80824254D01*
X159049317Y-80652775D01*
X159049309Y-80652770D01*
X158798166Y-80515635D01*
X158798167Y-80515635D01*
X158690915Y-80475632D01*
X158530046Y-80415631D01*
X158530043Y-80415630D01*
X158530037Y-80415628D01*
X158250433Y-80354804D01*
X157965001Y-80334390D01*
X157964999Y-80334390D01*
X157679566Y-80354804D01*
X157399962Y-80415628D01*
X157131833Y-80515635D01*
X156880690Y-80652770D01*
X156880682Y-80652775D01*
X156651612Y-80824254D01*
X156651594Y-80824270D01*
X156449270Y-81026594D01*
X156449254Y-81026612D01*
X156277775Y-81255682D01*
X156277770Y-81255690D01*
X156140635Y-81506833D01*
X156040628Y-81774962D01*
X155979804Y-82054566D01*
X155959390Y-82339998D01*
X155959390Y-82340001D01*
X155979804Y-82625433D01*
X156040628Y-82905037D01*
X156040630Y-82905043D01*
X156040631Y-82905046D01*
X156113345Y-83100000D01*
X156140635Y-83173166D01*
X156277770Y-83424309D01*
X156277775Y-83424317D01*
X156449254Y-83653387D01*
X156449270Y-83653405D01*
X156651594Y-83855729D01*
X156651612Y-83855745D01*
X156880682Y-84027224D01*
X156880690Y-84027229D01*
X157131833Y-84164364D01*
X157131836Y-84164366D01*
X157131839Y-84164367D01*
X157258835Y-84211733D01*
X157314767Y-84253603D01*
X157339184Y-84319067D01*
X157339500Y-84327914D01*
X157339500Y-101996233D01*
X157319815Y-102063272D01*
X157280778Y-102101660D01*
X157238436Y-102127877D01*
X157074020Y-102277761D01*
X156939943Y-102455308D01*
X156939938Y-102455316D01*
X156840775Y-102654461D01*
X156840769Y-102654476D01*
X156779885Y-102868462D01*
X156779884Y-102868464D01*
X156759357Y-103089999D01*
X156759357Y-103090000D01*
X156779884Y-103311535D01*
X156779885Y-103311537D01*
X156840769Y-103525523D01*
X156840775Y-103525538D01*
X156939938Y-103724683D01*
X156939943Y-103724691D01*
X157074020Y-103902238D01*
X157238433Y-104052120D01*
X157238435Y-104052122D01*
X157238437Y-104052123D01*
X157238438Y-104052124D01*
X157280778Y-104078339D01*
X157327412Y-104130364D01*
X157339500Y-104183765D01*
X157339500Y-109852084D01*
X157319815Y-109919123D01*
X157267011Y-109964878D01*
X157258834Y-109968266D01*
X157131833Y-110015635D01*
X156880690Y-110152770D01*
X156880682Y-110152775D01*
X156651612Y-110324254D01*
X156651594Y-110324270D01*
X156449270Y-110526594D01*
X156449254Y-110526612D01*
X156277775Y-110755682D01*
X156277770Y-110755690D01*
X156140635Y-111006833D01*
X156040628Y-111274962D01*
X155979804Y-111554566D01*
X155959390Y-111839998D01*
X155959390Y-111840001D01*
X154970610Y-111840001D01*
X154970610Y-111840000D01*
X154950196Y-111554572D01*
X154946358Y-111536930D01*
X154889371Y-111274962D01*
X154889370Y-111274960D01*
X154889369Y-111274954D01*
X154789367Y-111006839D01*
X154652372Y-110755953D01*
X154652229Y-110755690D01*
X154652224Y-110755682D01*
X154480745Y-110526612D01*
X154480729Y-110526594D01*
X154278405Y-110324270D01*
X154278387Y-110324254D01*
X154049317Y-110152775D01*
X154049309Y-110152770D01*
X153798166Y-110015635D01*
X153671166Y-109968266D01*
X153615232Y-109926394D01*
X153590816Y-109860929D01*
X153590500Y-109852084D01*
X153590500Y-106933765D01*
X153610185Y-106866726D01*
X153630367Y-106846880D01*
X154811672Y-106846880D01*
X154927821Y-106918797D01*
X154927822Y-106918798D01*
X155135195Y-106999134D01*
X155353807Y-107040000D01*
X155576193Y-107040000D01*
X155794809Y-106999133D01*
X156002168Y-106918801D01*
X156002181Y-106918795D01*
X156118326Y-106846879D01*
X155465001Y-106193553D01*
X155465000Y-106193553D01*
X154811672Y-106846879D01*
X154811672Y-106846880D01*
X153630367Y-106846880D01*
X153649220Y-106828340D01*
X153691562Y-106802124D01*
X153855981Y-106652236D01*
X153990058Y-106474689D01*
X154089229Y-106275528D01*
X154095994Y-106251750D01*
X154133271Y-106192661D01*
X154196580Y-106163102D01*
X154265820Y-106172463D01*
X154319007Y-106217772D01*
X154334525Y-106251753D01*
X154341236Y-106275342D01*
X154341239Y-106275348D01*
X154440369Y-106474428D01*
X154456137Y-106495308D01*
X154456138Y-106495308D01*
X155082145Y-105869302D01*
X155111372Y-105869302D01*
X155140047Y-105982538D01*
X155203936Y-106080327D01*
X155296115Y-106152072D01*
X155406595Y-106190000D01*
X155494005Y-106190000D01*
X155580216Y-106175614D01*
X155682947Y-106120019D01*
X155762060Y-106034079D01*
X155808982Y-105927108D01*
X155816200Y-105840000D01*
X155818553Y-105840000D01*
X156473861Y-106495308D01*
X156489631Y-106474425D01*
X156489633Y-106474422D01*
X156588759Y-106275350D01*
X156649621Y-106061439D01*
X156670141Y-105840000D01*
X156670141Y-105839999D01*
X156649621Y-105618560D01*
X156588759Y-105404649D01*
X156489635Y-105205580D01*
X156489630Y-105205572D01*
X156473860Y-105184690D01*
X155818553Y-105839999D01*
X155818553Y-105840000D01*
X155816200Y-105840000D01*
X155818628Y-105810698D01*
X155789953Y-105697462D01*
X155726064Y-105599673D01*
X155633885Y-105527928D01*
X155523405Y-105490000D01*
X155435995Y-105490000D01*
X155349784Y-105504386D01*
X155247053Y-105559981D01*
X155167940Y-105645921D01*
X155121018Y-105752892D01*
X155111372Y-105869302D01*
X155082145Y-105869302D01*
X155111447Y-105840000D01*
X154456138Y-105184691D01*
X154456137Y-105184691D01*
X154440368Y-105205574D01*
X154341239Y-105404651D01*
X154341238Y-105404652D01*
X154334525Y-105428248D01*
X154297245Y-105487340D01*
X154233935Y-105516898D01*
X154164696Y-105507535D01*
X154111510Y-105462224D01*
X154095995Y-105428253D01*
X154089229Y-105404472D01*
X153990188Y-105205572D01*
X153990061Y-105205316D01*
X153990056Y-105205308D01*
X153855979Y-105027761D01*
X153691563Y-104877877D01*
X153691562Y-104877876D01*
X153649222Y-104851660D01*
X153632603Y-104833119D01*
X154811671Y-104833119D01*
X155465000Y-105486447D01*
X155465001Y-105486447D01*
X156118327Y-104833119D01*
X156002178Y-104761202D01*
X156002177Y-104761201D01*
X155794804Y-104680865D01*
X155576193Y-104640000D01*
X155353807Y-104640000D01*
X155135195Y-104680865D01*
X154927824Y-104761200D01*
X154927823Y-104761201D01*
X154811671Y-104833119D01*
X153632603Y-104833119D01*
X153602587Y-104799631D01*
X153590500Y-104746233D01*
X153590500Y-84327914D01*
X153610185Y-84260875D01*
X153662989Y-84215120D01*
X153671143Y-84211741D01*
X153798161Y-84164367D01*
X154049315Y-84027226D01*
X154278395Y-83855739D01*
X154480739Y-83653395D01*
X154652226Y-83424315D01*
X154789367Y-83173161D01*
X154889369Y-82905046D01*
X154950196Y-82625428D01*
X154970610Y-82340000D01*
X154950196Y-82054572D01*
X154946358Y-82036930D01*
X154889371Y-81774962D01*
X154889370Y-81774960D01*
X154889369Y-81774954D01*
X154789367Y-81506839D01*
X154652372Y-81255953D01*
X154652229Y-81255690D01*
X154652224Y-81255682D01*
X154480745Y-81026612D01*
X154480729Y-81026594D01*
X154278405Y-80824270D01*
X154278387Y-80824254D01*
X154049317Y-80652775D01*
X154049309Y-80652770D01*
X153798166Y-80515635D01*
X153798167Y-80515635D01*
X153690915Y-80475632D01*
X153530046Y-80415631D01*
X153530043Y-80415630D01*
X153530037Y-80415628D01*
X153250433Y-80354804D01*
X152965001Y-80334390D01*
X152964999Y-80334390D01*
X152679566Y-80354804D01*
X152399962Y-80415628D01*
X152131833Y-80515635D01*
X151880690Y-80652770D01*
X151880682Y-80652775D01*
X151651612Y-80824254D01*
X151651594Y-80824270D01*
X151449270Y-81026594D01*
X151449254Y-81026612D01*
X151277775Y-81255682D01*
X151277770Y-81255690D01*
X151140635Y-81506833D01*
X151040628Y-81774962D01*
X150979804Y-82054566D01*
X150959390Y-82339998D01*
X150959390Y-82340001D01*
X150979804Y-82625433D01*
X151040628Y-82905037D01*
X151040630Y-82905043D01*
X151040631Y-82905046D01*
X151113345Y-83100000D01*
X151140635Y-83173166D01*
X151277770Y-83424309D01*
X151277775Y-83424317D01*
X151449254Y-83653387D01*
X151449270Y-83653405D01*
X151651594Y-83855729D01*
X151651612Y-83855745D01*
X151880682Y-84027224D01*
X151880690Y-84027229D01*
X152131833Y-84164364D01*
X152131836Y-84164366D01*
X152131839Y-84164367D01*
X152258835Y-84211733D01*
X152314767Y-84253603D01*
X152339184Y-84319067D01*
X152339500Y-84327914D01*
X152339500Y-104746233D01*
X152319815Y-104813272D01*
X152280778Y-104851660D01*
X152238436Y-104877877D01*
X152074020Y-105027761D01*
X151939943Y-105205308D01*
X151939938Y-105205316D01*
X151840775Y-105404461D01*
X151840769Y-105404476D01*
X151779885Y-105618462D01*
X151779884Y-105618464D01*
X151759357Y-105839999D01*
X151759357Y-105840000D01*
X151779884Y-106061535D01*
X151779885Y-106061537D01*
X151840769Y-106275523D01*
X151840775Y-106275538D01*
X151939938Y-106474683D01*
X151939943Y-106474691D01*
X152074020Y-106652238D01*
X152238433Y-106802120D01*
X152238435Y-106802122D01*
X152238437Y-106802123D01*
X152238438Y-106802124D01*
X152280778Y-106828339D01*
X152327412Y-106880364D01*
X152339500Y-106933765D01*
X152339500Y-109852084D01*
X152319815Y-109919123D01*
X152267011Y-109964878D01*
X152258834Y-109968266D01*
X152131833Y-110015635D01*
X151880690Y-110152770D01*
X151880682Y-110152775D01*
X151651612Y-110324254D01*
X151651594Y-110324270D01*
X151449270Y-110526594D01*
X151449254Y-110526612D01*
X151277775Y-110755682D01*
X151277770Y-110755690D01*
X151140635Y-111006833D01*
X151040628Y-111274962D01*
X150979804Y-111554566D01*
X150959390Y-111839998D01*
X150959390Y-111840001D01*
X149965500Y-111840001D01*
X149965499Y-110292128D01*
X149959091Y-110232517D01*
X149929506Y-110153196D01*
X149908797Y-110097671D01*
X149908793Y-110097664D01*
X149822547Y-109982455D01*
X149822544Y-109982452D01*
X149707335Y-109896206D01*
X149707328Y-109896202D01*
X149572482Y-109845908D01*
X149572483Y-109845908D01*
X149512883Y-109839501D01*
X149512881Y-109839500D01*
X149512873Y-109839500D01*
X149512865Y-109839500D01*
X148714500Y-109839500D01*
X148647461Y-109819815D01*
X148601706Y-109767011D01*
X148590500Y-109715500D01*
X148590500Y-104183765D01*
X148610185Y-104116726D01*
X148630367Y-104096880D01*
X149811672Y-104096880D01*
X149927821Y-104168797D01*
X149927822Y-104168798D01*
X150135195Y-104249134D01*
X150353807Y-104290000D01*
X150576193Y-104290000D01*
X150794809Y-104249133D01*
X151002168Y-104168801D01*
X151002181Y-104168795D01*
X151118326Y-104096879D01*
X150465001Y-103443553D01*
X150465000Y-103443553D01*
X149811672Y-104096879D01*
X149811672Y-104096880D01*
X148630367Y-104096880D01*
X148649220Y-104078340D01*
X148691562Y-104052124D01*
X148855981Y-103902236D01*
X148990058Y-103724689D01*
X149089229Y-103525528D01*
X149095994Y-103501750D01*
X149133271Y-103442661D01*
X149196580Y-103413102D01*
X149265820Y-103422463D01*
X149319007Y-103467772D01*
X149334525Y-103501753D01*
X149341236Y-103525342D01*
X149341239Y-103525348D01*
X149440369Y-103724428D01*
X149456137Y-103745308D01*
X149456138Y-103745308D01*
X150082145Y-103119302D01*
X150111372Y-103119302D01*
X150140047Y-103232538D01*
X150203936Y-103330327D01*
X150296115Y-103402072D01*
X150406595Y-103440000D01*
X150494005Y-103440000D01*
X150580216Y-103425614D01*
X150682947Y-103370019D01*
X150762060Y-103284079D01*
X150808982Y-103177108D01*
X150816200Y-103090000D01*
X150818553Y-103090000D01*
X151473861Y-103745308D01*
X151489631Y-103724425D01*
X151489633Y-103724422D01*
X151588759Y-103525350D01*
X151649621Y-103311439D01*
X151670141Y-103090000D01*
X151670141Y-103089999D01*
X151649621Y-102868560D01*
X151588759Y-102654649D01*
X151489635Y-102455580D01*
X151489630Y-102455572D01*
X151473860Y-102434690D01*
X150818553Y-103089999D01*
X150818553Y-103090000D01*
X150816200Y-103090000D01*
X150818628Y-103060698D01*
X150789953Y-102947462D01*
X150726064Y-102849673D01*
X150633885Y-102777928D01*
X150523405Y-102740000D01*
X150435995Y-102740000D01*
X150349784Y-102754386D01*
X150247053Y-102809981D01*
X150167940Y-102895921D01*
X150121018Y-103002892D01*
X150111372Y-103119302D01*
X150082145Y-103119302D01*
X150111447Y-103090000D01*
X149456138Y-102434691D01*
X149456137Y-102434691D01*
X149440368Y-102455574D01*
X149341239Y-102654651D01*
X149341238Y-102654652D01*
X149334525Y-102678248D01*
X149297245Y-102737340D01*
X149233935Y-102766898D01*
X149164696Y-102757535D01*
X149111510Y-102712224D01*
X149095995Y-102678253D01*
X149089229Y-102654472D01*
X148990188Y-102455572D01*
X148990061Y-102455316D01*
X148990056Y-102455308D01*
X148855979Y-102277761D01*
X148691563Y-102127877D01*
X148691562Y-102127876D01*
X148649222Y-102101660D01*
X148632603Y-102083119D01*
X149811671Y-102083119D01*
X150465000Y-102736447D01*
X150465001Y-102736447D01*
X151118327Y-102083119D01*
X151002178Y-102011202D01*
X151002177Y-102011201D01*
X150794804Y-101930865D01*
X150576193Y-101890000D01*
X150353807Y-101890000D01*
X150135195Y-101930865D01*
X149927824Y-102011200D01*
X149927823Y-102011201D01*
X149811671Y-102083119D01*
X148632603Y-102083119D01*
X148602587Y-102049631D01*
X148590500Y-101996233D01*
X148590500Y-84464499D01*
X148610185Y-84397460D01*
X148662989Y-84351705D01*
X148714500Y-84340499D01*
X149512871Y-84340499D01*
X149512872Y-84340499D01*
X149572483Y-84334091D01*
X149707331Y-84283796D01*
X149822546Y-84197546D01*
X149908796Y-84082331D01*
X149959091Y-83947483D01*
X149965500Y-83887873D01*
X149965499Y-80792128D01*
X149959091Y-80732517D01*
X149929506Y-80653196D01*
X149908797Y-80597671D01*
X149908793Y-80597664D01*
X149822547Y-80482455D01*
X149822544Y-80482452D01*
X149707335Y-80396206D01*
X149707328Y-80396202D01*
X149572482Y-80345908D01*
X149572483Y-80345908D01*
X149512883Y-80339501D01*
X149512881Y-80339500D01*
X149512873Y-80339500D01*
X149512864Y-80339500D01*
X146417129Y-80339500D01*
X146417123Y-80339501D01*
X146357516Y-80345908D01*
X146222671Y-80396202D01*
X146222664Y-80396206D01*
X146107455Y-80482452D01*
X146107452Y-80482455D01*
X146021206Y-80597664D01*
X146021202Y-80597671D01*
X145970908Y-80732517D01*
X145964501Y-80792116D01*
X145964501Y-80792123D01*
X145964500Y-80792135D01*
X145964500Y-83887870D01*
X145964501Y-83887876D01*
X145970908Y-83947483D01*
X146021202Y-84082328D01*
X146021206Y-84082335D01*
X146107452Y-84197544D01*
X146107455Y-84197547D01*
X146222664Y-84283793D01*
X146222671Y-84283797D01*
X146357517Y-84334091D01*
X146357516Y-84334091D01*
X146364444Y-84334835D01*
X146417127Y-84340500D01*
X147215500Y-84340499D01*
X147282539Y-84360183D01*
X147328294Y-84412987D01*
X147339500Y-84464499D01*
X147339500Y-101996233D01*
X147319815Y-102063272D01*
X147280778Y-102101660D01*
X147238436Y-102127877D01*
X147074020Y-102277761D01*
X146939943Y-102455308D01*
X146939938Y-102455316D01*
X146840775Y-102654461D01*
X146840769Y-102654476D01*
X146779885Y-102868462D01*
X146779884Y-102868464D01*
X146759357Y-103089999D01*
X146759357Y-103090000D01*
X146779884Y-103311535D01*
X146779885Y-103311537D01*
X146840769Y-103525523D01*
X146840775Y-103525538D01*
X146939938Y-103724683D01*
X146939943Y-103724691D01*
X147074020Y-103902238D01*
X147238433Y-104052120D01*
X147238435Y-104052122D01*
X147238437Y-104052123D01*
X147238438Y-104052124D01*
X147280778Y-104078339D01*
X147327412Y-104130364D01*
X147339500Y-104183765D01*
X147339500Y-109715500D01*
X147319815Y-109782539D01*
X147267011Y-109828294D01*
X147215500Y-109839500D01*
X146417129Y-109839500D01*
X146417123Y-109839501D01*
X146357516Y-109845908D01*
X146222671Y-109896202D01*
X146222664Y-109896206D01*
X146107455Y-109982452D01*
X146107452Y-109982455D01*
X146021206Y-110097664D01*
X146021202Y-110097671D01*
X145970908Y-110232517D01*
X145964501Y-110292116D01*
X145964501Y-110292123D01*
X145964500Y-110292135D01*
X145964500Y-113387870D01*
X144159317Y-113387870D01*
X143298748Y-112527300D01*
X143308409Y-112523784D01*
X143456844Y-112426157D01*
X143578764Y-112296930D01*
X143650768Y-112172215D01*
X144545115Y-113066562D01*
X144545116Y-113066561D01*
X144651803Y-112924047D01*
X144788908Y-112672958D01*
X144888890Y-112404895D01*
X144949699Y-112125362D01*
X144970109Y-111840001D01*
X144970109Y-111839998D01*
X144949699Y-111554637D01*
X144888890Y-111275104D01*
X144788908Y-111007041D01*
X144651808Y-110755961D01*
X144651807Y-110755960D01*
X144545115Y-110613436D01*
X143649803Y-111508747D01*
X143627660Y-111457413D01*
X143521567Y-111314906D01*
X143385470Y-111200706D01*
X143295782Y-111155663D01*
X144191562Y-110259883D01*
X144191561Y-110259882D01*
X144049046Y-110153196D01*
X144049038Y-110153191D01*
X143797957Y-110016091D01*
X143797958Y-110016091D01*
X143529895Y-109916109D01*
X143250362Y-109855300D01*
X142965001Y-109834891D01*
X142964999Y-109834891D01*
X142679637Y-109855300D01*
X142400104Y-109916109D01*
X142132041Y-110016091D01*
X141880961Y-110153191D01*
X141880953Y-110153196D01*
X141738437Y-110259882D01*
X141738436Y-110259883D01*
X142631252Y-111152699D01*
X142621591Y-111156216D01*
X142473156Y-111253843D01*
X142351236Y-111383070D01*
X142279231Y-111507784D01*
X141384883Y-110613436D01*
X141384882Y-110613437D01*
X141278196Y-110755953D01*
X141278191Y-110755961D01*
X141141091Y-111007041D01*
X141041109Y-111275104D01*
X140980300Y-111554637D01*
X140959891Y-111839998D01*
X140959891Y-111840001D01*
X139970610Y-111840001D01*
X139970610Y-111840000D01*
X139950196Y-111554572D01*
X139946358Y-111536930D01*
X139889371Y-111274962D01*
X139889370Y-111274960D01*
X139889369Y-111274954D01*
X139789367Y-111006839D01*
X139652372Y-110755953D01*
X139652229Y-110755690D01*
X139652224Y-110755682D01*
X139480745Y-110526612D01*
X139480729Y-110526594D01*
X139278405Y-110324270D01*
X139278387Y-110324254D01*
X139049317Y-110152775D01*
X139049309Y-110152770D01*
X138798166Y-110015635D01*
X138671166Y-109968266D01*
X138615232Y-109926394D01*
X138590816Y-109860929D01*
X138590500Y-109852084D01*
X138590500Y-106933765D01*
X138610185Y-106866726D01*
X138630367Y-106846880D01*
X139811672Y-106846880D01*
X139927821Y-106918797D01*
X139927822Y-106918798D01*
X140135195Y-106999134D01*
X140353807Y-107040000D01*
X140576193Y-107040000D01*
X140794809Y-106999133D01*
X141002168Y-106918801D01*
X141002181Y-106918795D01*
X141118326Y-106846879D01*
X140465001Y-106193553D01*
X140465000Y-106193553D01*
X139811672Y-106846879D01*
X139811672Y-106846880D01*
X138630367Y-106846880D01*
X138649220Y-106828340D01*
X138691562Y-106802124D01*
X138855981Y-106652236D01*
X138990058Y-106474689D01*
X139089229Y-106275528D01*
X139095994Y-106251750D01*
X139133271Y-106192661D01*
X139196580Y-106163102D01*
X139265820Y-106172463D01*
X139319007Y-106217772D01*
X139334525Y-106251753D01*
X139341236Y-106275342D01*
X139341239Y-106275348D01*
X139440369Y-106474428D01*
X139456137Y-106495308D01*
X139456138Y-106495308D01*
X140082145Y-105869302D01*
X140111372Y-105869302D01*
X140140047Y-105982538D01*
X140203936Y-106080327D01*
X140296115Y-106152072D01*
X140406595Y-106190000D01*
X140494005Y-106190000D01*
X140580216Y-106175614D01*
X140682947Y-106120019D01*
X140762060Y-106034079D01*
X140808982Y-105927108D01*
X140816200Y-105840000D01*
X140818553Y-105840000D01*
X141473861Y-106495308D01*
X141489631Y-106474425D01*
X141489633Y-106474422D01*
X141588759Y-106275350D01*
X141649621Y-106061439D01*
X141670141Y-105840000D01*
X141670141Y-105839999D01*
X141649621Y-105618560D01*
X141588759Y-105404649D01*
X141489635Y-105205580D01*
X141489630Y-105205572D01*
X141473860Y-105184690D01*
X140818553Y-105839999D01*
X140818553Y-105840000D01*
X140816200Y-105840000D01*
X140818628Y-105810698D01*
X140789953Y-105697462D01*
X140726064Y-105599673D01*
X140633885Y-105527928D01*
X140523405Y-105490000D01*
X140435995Y-105490000D01*
X140349784Y-105504386D01*
X140247053Y-105559981D01*
X140167940Y-105645921D01*
X140121018Y-105752892D01*
X140111372Y-105869302D01*
X140082145Y-105869302D01*
X140111447Y-105840000D01*
X139456138Y-105184691D01*
X139456137Y-105184691D01*
X139440368Y-105205574D01*
X139341239Y-105404651D01*
X139341238Y-105404652D01*
X139334525Y-105428248D01*
X139297245Y-105487340D01*
X139233935Y-105516898D01*
X139164696Y-105507535D01*
X139111510Y-105462224D01*
X139095995Y-105428253D01*
X139089229Y-105404472D01*
X138990188Y-105205572D01*
X138990061Y-105205316D01*
X138990056Y-105205308D01*
X138855979Y-105027761D01*
X138691563Y-104877877D01*
X138691562Y-104877876D01*
X138649222Y-104851660D01*
X138632603Y-104833119D01*
X139811671Y-104833119D01*
X140465000Y-105486447D01*
X140465001Y-105486447D01*
X141118327Y-104833119D01*
X141002178Y-104761202D01*
X141002177Y-104761201D01*
X140794804Y-104680865D01*
X140576193Y-104640000D01*
X140353807Y-104640000D01*
X140135195Y-104680865D01*
X139927824Y-104761200D01*
X139927823Y-104761201D01*
X139811671Y-104833119D01*
X138632603Y-104833119D01*
X138602587Y-104799631D01*
X138590500Y-104746233D01*
X138590500Y-84327914D01*
X138610185Y-84260875D01*
X138662989Y-84215120D01*
X138671143Y-84211741D01*
X138798161Y-84164367D01*
X139049315Y-84027226D01*
X139278395Y-83855739D01*
X139480739Y-83653395D01*
X139652226Y-83424315D01*
X139789367Y-83173161D01*
X139889369Y-82905046D01*
X139950196Y-82625428D01*
X139970610Y-82340001D01*
X140959891Y-82340001D01*
X140980300Y-82625362D01*
X141041109Y-82904895D01*
X141141091Y-83172958D01*
X141278191Y-83424038D01*
X141278196Y-83424046D01*
X141384882Y-83566561D01*
X141384883Y-83566562D01*
X142280195Y-82671250D01*
X142302340Y-82722587D01*
X142408433Y-82865094D01*
X142544530Y-82979294D01*
X142634216Y-83024335D01*
X141738436Y-83920115D01*
X141880960Y-84026807D01*
X141880961Y-84026808D01*
X142132042Y-84163908D01*
X142132041Y-84163908D01*
X142400104Y-84263890D01*
X142679637Y-84324699D01*
X142964999Y-84345109D01*
X142965001Y-84345109D01*
X143250362Y-84324699D01*
X143529895Y-84263890D01*
X143797958Y-84163908D01*
X144049047Y-84026803D01*
X144191561Y-83920116D01*
X144191562Y-83920115D01*
X143298748Y-83027300D01*
X143308409Y-83023784D01*
X143456844Y-82926157D01*
X143578764Y-82796930D01*
X143650768Y-82672215D01*
X144545115Y-83566562D01*
X144545116Y-83566561D01*
X144651803Y-83424047D01*
X144788908Y-83172958D01*
X144888890Y-82904895D01*
X144949699Y-82625362D01*
X144970109Y-82340001D01*
X144970109Y-82339998D01*
X144949699Y-82054637D01*
X144888890Y-81775104D01*
X144788908Y-81507041D01*
X144651808Y-81255961D01*
X144651807Y-81255960D01*
X144545115Y-81113436D01*
X143649803Y-82008747D01*
X143627660Y-81957413D01*
X143521567Y-81814906D01*
X143385470Y-81700706D01*
X143295782Y-81655663D01*
X144191562Y-80759883D01*
X144191561Y-80759882D01*
X144049046Y-80653196D01*
X144049038Y-80653191D01*
X143797957Y-80516091D01*
X143797958Y-80516091D01*
X143529895Y-80416109D01*
X143250362Y-80355300D01*
X142965001Y-80334891D01*
X142964999Y-80334891D01*
X142679637Y-80355300D01*
X142400104Y-80416109D01*
X142132041Y-80516091D01*
X141880961Y-80653191D01*
X141880953Y-80653196D01*
X141738437Y-80759882D01*
X141738436Y-80759883D01*
X142631252Y-81652699D01*
X142621591Y-81656216D01*
X142473156Y-81753843D01*
X142351236Y-81883070D01*
X142279231Y-82007784D01*
X141384883Y-81113436D01*
X141384882Y-81113437D01*
X141278196Y-81255953D01*
X141278191Y-81255961D01*
X141141091Y-81507041D01*
X141041109Y-81775104D01*
X140980300Y-82054637D01*
X140959891Y-82339998D01*
X140959891Y-82340001D01*
X139970610Y-82340001D01*
X139970610Y-82340000D01*
X139950196Y-82054572D01*
X139946358Y-82036930D01*
X139889371Y-81774962D01*
X139889370Y-81774960D01*
X139889369Y-81774954D01*
X139789367Y-81506839D01*
X139652372Y-81255953D01*
X139652229Y-81255690D01*
X139652224Y-81255682D01*
X139480745Y-81026612D01*
X139480729Y-81026594D01*
X139278405Y-80824270D01*
X139278387Y-80824254D01*
X139049317Y-80652775D01*
X139049309Y-80652770D01*
X138798166Y-80515635D01*
X138798167Y-80515635D01*
X138690915Y-80475632D01*
X138530046Y-80415631D01*
X138530043Y-80415630D01*
X138530037Y-80415628D01*
X138250433Y-80354804D01*
X137965001Y-80334390D01*
X137964999Y-80334390D01*
X137679566Y-80354804D01*
X137399962Y-80415628D01*
X137131833Y-80515635D01*
X136880690Y-80652770D01*
X136880682Y-80652775D01*
X136651612Y-80824254D01*
X136651594Y-80824270D01*
X136449270Y-81026594D01*
X136449254Y-81026612D01*
X136277775Y-81255682D01*
X136277770Y-81255690D01*
X136140635Y-81506833D01*
X136040628Y-81774962D01*
X135979804Y-82054566D01*
X135959390Y-82339998D01*
X135959390Y-82340001D01*
X135979804Y-82625433D01*
X136040628Y-82905037D01*
X136040630Y-82905043D01*
X136040631Y-82905046D01*
X136113345Y-83100000D01*
X136140635Y-83173166D01*
X136277770Y-83424309D01*
X136277775Y-83424317D01*
X136449254Y-83653387D01*
X136449270Y-83653405D01*
X136651594Y-83855729D01*
X136651612Y-83855745D01*
X136880682Y-84027224D01*
X136880690Y-84027229D01*
X137131833Y-84164364D01*
X137131836Y-84164366D01*
X137131839Y-84164367D01*
X137258835Y-84211733D01*
X137314767Y-84253603D01*
X137339184Y-84319067D01*
X137339500Y-84327914D01*
X137339500Y-104746233D01*
X137319815Y-104813272D01*
X137280778Y-104851660D01*
X137238436Y-104877877D01*
X137074020Y-105027761D01*
X136939943Y-105205308D01*
X136939938Y-105205316D01*
X136840775Y-105404461D01*
X136840769Y-105404476D01*
X136779885Y-105618462D01*
X136779884Y-105618464D01*
X136759357Y-105839999D01*
X136759357Y-105840000D01*
X136779884Y-106061535D01*
X136779885Y-106061537D01*
X136840769Y-106275523D01*
X136840775Y-106275538D01*
X136939938Y-106474683D01*
X136939943Y-106474691D01*
X137074020Y-106652238D01*
X137238433Y-106802120D01*
X137238435Y-106802122D01*
X137238437Y-106802123D01*
X137238438Y-106802124D01*
X137280778Y-106828339D01*
X137327412Y-106880364D01*
X137339500Y-106933765D01*
X137339500Y-109852084D01*
X137319815Y-109919123D01*
X137267011Y-109964878D01*
X137258834Y-109968266D01*
X137131833Y-110015635D01*
X136880690Y-110152770D01*
X136880682Y-110152775D01*
X136651612Y-110324254D01*
X136651594Y-110324270D01*
X136449270Y-110526594D01*
X136449254Y-110526612D01*
X136277775Y-110755682D01*
X136277770Y-110755690D01*
X136140635Y-111006833D01*
X136040628Y-111274962D01*
X135979804Y-111554566D01*
X135959390Y-111839998D01*
X135959390Y-111840001D01*
X134970610Y-111840001D01*
X134970610Y-111840000D01*
X134950196Y-111554572D01*
X134946358Y-111536930D01*
X134889371Y-111274962D01*
X134889370Y-111274960D01*
X134889369Y-111274954D01*
X134789367Y-111006839D01*
X134652372Y-110755953D01*
X134652229Y-110755690D01*
X134652224Y-110755682D01*
X134480745Y-110526612D01*
X134480729Y-110526594D01*
X134278405Y-110324270D01*
X134278387Y-110324254D01*
X134049317Y-110152775D01*
X134049309Y-110152770D01*
X133798166Y-110015635D01*
X133671166Y-109968266D01*
X133615232Y-109926394D01*
X133590816Y-109860929D01*
X133590500Y-109852084D01*
X133590500Y-104183765D01*
X133610185Y-104116726D01*
X133630367Y-104096880D01*
X134811672Y-104096880D01*
X134927821Y-104168797D01*
X134927822Y-104168798D01*
X135135195Y-104249134D01*
X135353807Y-104290000D01*
X135576193Y-104290000D01*
X135794809Y-104249133D01*
X136002168Y-104168801D01*
X136002181Y-104168795D01*
X136118326Y-104096879D01*
X135465001Y-103443553D01*
X135465000Y-103443553D01*
X134811672Y-104096879D01*
X134811672Y-104096880D01*
X133630367Y-104096880D01*
X133649220Y-104078340D01*
X133691562Y-104052124D01*
X133855981Y-103902236D01*
X133990058Y-103724689D01*
X134089229Y-103525528D01*
X134095994Y-103501750D01*
X134133271Y-103442661D01*
X134196580Y-103413102D01*
X134265820Y-103422463D01*
X134319007Y-103467772D01*
X134334525Y-103501753D01*
X134341236Y-103525342D01*
X134341239Y-103525348D01*
X134440369Y-103724428D01*
X134456137Y-103745308D01*
X134456138Y-103745308D01*
X135082145Y-103119302D01*
X135111372Y-103119302D01*
X135140047Y-103232538D01*
X135203936Y-103330327D01*
X135296115Y-103402072D01*
X135406595Y-103440000D01*
X135494005Y-103440000D01*
X135580216Y-103425614D01*
X135682947Y-103370019D01*
X135762060Y-103284079D01*
X135808982Y-103177108D01*
X135816200Y-103090000D01*
X135818553Y-103090000D01*
X136473861Y-103745308D01*
X136489631Y-103724425D01*
X136489633Y-103724422D01*
X136588759Y-103525350D01*
X136649621Y-103311439D01*
X136670141Y-103090000D01*
X136670141Y-103089999D01*
X136649621Y-102868560D01*
X136588759Y-102654649D01*
X136489635Y-102455580D01*
X136489630Y-102455572D01*
X136473860Y-102434690D01*
X135818553Y-103089999D01*
X135818553Y-103090000D01*
X135816200Y-103090000D01*
X135818628Y-103060698D01*
X135789953Y-102947462D01*
X135726064Y-102849673D01*
X135633885Y-102777928D01*
X135523405Y-102740000D01*
X135435995Y-102740000D01*
X135349784Y-102754386D01*
X135247053Y-102809981D01*
X135167940Y-102895921D01*
X135121018Y-103002892D01*
X135111372Y-103119302D01*
X135082145Y-103119302D01*
X135111447Y-103090000D01*
X135111447Y-103089999D01*
X134456138Y-102434690D01*
X134456137Y-102434691D01*
X134440368Y-102455574D01*
X134341239Y-102654651D01*
X134341238Y-102654652D01*
X134334525Y-102678248D01*
X134297245Y-102737340D01*
X134233935Y-102766898D01*
X134164696Y-102757535D01*
X134111510Y-102712224D01*
X134095995Y-102678253D01*
X134089229Y-102654472D01*
X133990188Y-102455572D01*
X133990061Y-102455316D01*
X133990056Y-102455308D01*
X133855979Y-102277761D01*
X133691563Y-102127877D01*
X133691562Y-102127876D01*
X133649222Y-102101660D01*
X133632603Y-102083119D01*
X134811671Y-102083119D01*
X135465000Y-102736447D01*
X135465001Y-102736447D01*
X136118327Y-102083119D01*
X136002178Y-102011202D01*
X136002177Y-102011201D01*
X135794804Y-101930865D01*
X135576193Y-101890000D01*
X135353807Y-101890000D01*
X135135195Y-101930865D01*
X134927824Y-102011200D01*
X134927823Y-102011201D01*
X134811671Y-102083119D01*
X133632603Y-102083119D01*
X133602587Y-102049631D01*
X133590500Y-101996233D01*
X133590500Y-84327914D01*
X133610185Y-84260875D01*
X133662989Y-84215120D01*
X133671143Y-84211741D01*
X133798161Y-84164367D01*
X134049315Y-84027226D01*
X134278395Y-83855739D01*
X134480739Y-83653395D01*
X134652226Y-83424315D01*
X134789367Y-83173161D01*
X134889369Y-82905046D01*
X134950196Y-82625428D01*
X134970610Y-82340000D01*
X134950196Y-82054572D01*
X134946358Y-82036930D01*
X134889371Y-81774962D01*
X134889370Y-81774960D01*
X134889369Y-81774954D01*
X134789367Y-81506839D01*
X134652372Y-81255953D01*
X134652229Y-81255690D01*
X134652224Y-81255682D01*
X134480745Y-81026612D01*
X134480729Y-81026594D01*
X134278405Y-80824270D01*
X134278387Y-80824254D01*
X134049317Y-80652775D01*
X134049309Y-80652770D01*
X133798166Y-80515635D01*
X133798167Y-80515635D01*
X133690915Y-80475632D01*
X133530046Y-80415631D01*
X133530043Y-80415630D01*
X133530037Y-80415628D01*
X133250433Y-80354804D01*
X132965001Y-80334390D01*
X132964999Y-80334390D01*
X132679566Y-80354804D01*
X132399962Y-80415628D01*
X132131833Y-80515635D01*
X131880690Y-80652770D01*
X131880682Y-80652775D01*
X131651612Y-80824254D01*
X131651594Y-80824270D01*
X131449270Y-81026594D01*
X131449254Y-81026612D01*
X131277775Y-81255682D01*
X131277770Y-81255690D01*
X131140635Y-81506833D01*
X131040628Y-81774962D01*
X130979804Y-82054566D01*
X130959390Y-82339998D01*
X130959390Y-82340001D01*
X130979804Y-82625433D01*
X131040628Y-82905037D01*
X131040630Y-82905043D01*
X131040631Y-82905046D01*
X131113345Y-83100000D01*
X131140635Y-83173166D01*
X131277770Y-83424309D01*
X131277775Y-83424317D01*
X131449254Y-83653387D01*
X131449270Y-83653405D01*
X131651594Y-83855729D01*
X131651612Y-83855745D01*
X131880682Y-84027224D01*
X131880690Y-84027229D01*
X132131833Y-84164364D01*
X132131836Y-84164366D01*
X132131839Y-84164367D01*
X132258835Y-84211733D01*
X132314767Y-84253603D01*
X132339184Y-84319067D01*
X132339500Y-84327914D01*
X132339500Y-101996233D01*
X132319815Y-102063272D01*
X132280778Y-102101660D01*
X132238436Y-102127877D01*
X132074020Y-102277761D01*
X131939943Y-102455308D01*
X131939938Y-102455316D01*
X131840775Y-102654461D01*
X131840769Y-102654476D01*
X131779885Y-102868462D01*
X131779884Y-102868464D01*
X131759357Y-103089999D01*
X131759357Y-103090000D01*
X131779884Y-103311535D01*
X131779885Y-103311537D01*
X131840769Y-103525523D01*
X131840775Y-103525538D01*
X131939938Y-103724683D01*
X131939943Y-103724691D01*
X132074020Y-103902238D01*
X132238433Y-104052120D01*
X132238435Y-104052122D01*
X132238437Y-104052123D01*
X132238438Y-104052124D01*
X132280778Y-104078339D01*
X132327412Y-104130364D01*
X132339500Y-104183765D01*
X132339500Y-109852084D01*
X132319815Y-109919123D01*
X132267011Y-109964878D01*
X132258834Y-109968266D01*
X132131833Y-110015635D01*
X131880690Y-110152770D01*
X131880682Y-110152775D01*
X131651612Y-110324254D01*
X131651594Y-110324270D01*
X131449270Y-110526594D01*
X131449254Y-110526612D01*
X131277775Y-110755682D01*
X131277770Y-110755690D01*
X131140635Y-111006833D01*
X131040628Y-111274962D01*
X130979804Y-111554566D01*
X130959390Y-111839998D01*
X130959390Y-111840001D01*
X129970610Y-111840001D01*
X129970610Y-111840000D01*
X129950196Y-111554572D01*
X129946358Y-111536930D01*
X129889371Y-111274962D01*
X129889370Y-111274960D01*
X129889369Y-111274954D01*
X129789367Y-111006839D01*
X129652372Y-110755953D01*
X129652229Y-110755690D01*
X129652224Y-110755682D01*
X129480745Y-110526612D01*
X129480729Y-110526594D01*
X129278405Y-110324270D01*
X129278387Y-110324254D01*
X129049317Y-110152775D01*
X129049309Y-110152770D01*
X128798166Y-110015635D01*
X128671166Y-109968266D01*
X128615232Y-109926394D01*
X128590816Y-109860929D01*
X128590500Y-109852084D01*
X128590500Y-106933765D01*
X128610185Y-106866726D01*
X128630367Y-106846880D01*
X129811672Y-106846880D01*
X129927821Y-106918797D01*
X129927822Y-106918798D01*
X130135195Y-106999134D01*
X130353807Y-107040000D01*
X130576193Y-107040000D01*
X130794809Y-106999133D01*
X131002168Y-106918801D01*
X131002181Y-106918795D01*
X131118326Y-106846879D01*
X130465001Y-106193553D01*
X130465000Y-106193553D01*
X129811672Y-106846879D01*
X129811672Y-106846880D01*
X128630367Y-106846880D01*
X128649220Y-106828340D01*
X128691562Y-106802124D01*
X128855981Y-106652236D01*
X128990058Y-106474689D01*
X129089229Y-106275528D01*
X129095994Y-106251750D01*
X129133271Y-106192661D01*
X129196580Y-106163102D01*
X129265820Y-106172463D01*
X129319007Y-106217772D01*
X129334525Y-106251753D01*
X129341236Y-106275342D01*
X129341239Y-106275348D01*
X129440369Y-106474428D01*
X129456137Y-106495308D01*
X129456138Y-106495308D01*
X130082145Y-105869302D01*
X130111372Y-105869302D01*
X130140047Y-105982538D01*
X130203936Y-106080327D01*
X130296115Y-106152072D01*
X130406595Y-106190000D01*
X130494005Y-106190000D01*
X130580216Y-106175614D01*
X130682947Y-106120019D01*
X130762060Y-106034079D01*
X130808982Y-105927108D01*
X130816200Y-105840000D01*
X130818553Y-105840000D01*
X131473861Y-106495308D01*
X131489631Y-106474425D01*
X131489633Y-106474422D01*
X131588759Y-106275350D01*
X131649621Y-106061439D01*
X131670141Y-105840000D01*
X131670141Y-105839999D01*
X131649621Y-105618560D01*
X131588759Y-105404649D01*
X131489635Y-105205580D01*
X131489630Y-105205572D01*
X131473860Y-105184690D01*
X130818553Y-105839999D01*
X130818553Y-105840000D01*
X130816200Y-105840000D01*
X130818628Y-105810698D01*
X130789953Y-105697462D01*
X130726064Y-105599673D01*
X130633885Y-105527928D01*
X130523405Y-105490000D01*
X130435995Y-105490000D01*
X130349784Y-105504386D01*
X130247053Y-105559981D01*
X130167940Y-105645921D01*
X130121018Y-105752892D01*
X130111372Y-105869302D01*
X130082145Y-105869302D01*
X130111447Y-105840000D01*
X129456138Y-105184691D01*
X129456137Y-105184691D01*
X129440368Y-105205574D01*
X129341239Y-105404651D01*
X129341238Y-105404652D01*
X129334525Y-105428248D01*
X129297245Y-105487340D01*
X129233935Y-105516898D01*
X129164696Y-105507535D01*
X129111510Y-105462224D01*
X129095995Y-105428253D01*
X129089229Y-105404472D01*
X128990188Y-105205572D01*
X128990061Y-105205316D01*
X128990056Y-105205308D01*
X128855979Y-105027761D01*
X128691563Y-104877877D01*
X128691562Y-104877876D01*
X128649222Y-104851660D01*
X128632603Y-104833119D01*
X129811671Y-104833119D01*
X130465000Y-105486447D01*
X130465001Y-105486447D01*
X131118327Y-104833119D01*
X131002178Y-104761202D01*
X131002177Y-104761201D01*
X130794804Y-104680865D01*
X130576193Y-104640000D01*
X130353807Y-104640000D01*
X130135195Y-104680865D01*
X129927824Y-104761200D01*
X129927823Y-104761201D01*
X129811671Y-104833119D01*
X128632603Y-104833119D01*
X128602587Y-104799631D01*
X128590500Y-104746233D01*
X128590500Y-84327914D01*
X128610185Y-84260875D01*
X128662989Y-84215120D01*
X128671143Y-84211741D01*
X128798161Y-84164367D01*
X129049315Y-84027226D01*
X129278395Y-83855739D01*
X129480739Y-83653395D01*
X129652226Y-83424315D01*
X129789367Y-83173161D01*
X129889369Y-82905046D01*
X129950196Y-82625428D01*
X129970610Y-82340000D01*
X129950196Y-82054572D01*
X129946358Y-82036930D01*
X129889371Y-81774962D01*
X129889370Y-81774960D01*
X129889369Y-81774954D01*
X129789367Y-81506839D01*
X129652372Y-81255953D01*
X129652229Y-81255690D01*
X129652224Y-81255682D01*
X129480745Y-81026612D01*
X129480729Y-81026594D01*
X129278405Y-80824270D01*
X129278387Y-80824254D01*
X129049317Y-80652775D01*
X129049309Y-80652770D01*
X128798166Y-80515635D01*
X128798167Y-80515635D01*
X128690915Y-80475632D01*
X128530046Y-80415631D01*
X128530043Y-80415630D01*
X128530037Y-80415628D01*
X128250433Y-80354804D01*
X127965001Y-80334390D01*
X127964999Y-80334390D01*
X127679566Y-80354804D01*
X127399962Y-80415628D01*
X127131833Y-80515635D01*
X126880690Y-80652770D01*
X126880682Y-80652775D01*
X126651612Y-80824254D01*
X126651594Y-80824270D01*
X126449270Y-81026594D01*
X126449254Y-81026612D01*
X126277775Y-81255682D01*
X126277770Y-81255690D01*
X126140635Y-81506833D01*
X126040628Y-81774962D01*
X125979804Y-82054566D01*
X125959390Y-82339998D01*
X125959390Y-82340001D01*
X125979804Y-82625433D01*
X126040628Y-82905037D01*
X126040630Y-82905043D01*
X126040631Y-82905046D01*
X126113345Y-83100000D01*
X126140635Y-83173166D01*
X126277770Y-83424309D01*
X126277775Y-83424317D01*
X126449254Y-83653387D01*
X126449270Y-83653405D01*
X126651594Y-83855729D01*
X126651612Y-83855745D01*
X126880682Y-84027224D01*
X126880690Y-84027229D01*
X127131833Y-84164364D01*
X127131836Y-84164366D01*
X127131839Y-84164367D01*
X127258835Y-84211733D01*
X127314767Y-84253603D01*
X127339184Y-84319067D01*
X127339500Y-84327914D01*
X127339500Y-104746233D01*
X127319815Y-104813272D01*
X127280778Y-104851660D01*
X127238436Y-104877877D01*
X127074020Y-105027761D01*
X126939943Y-105205308D01*
X126939938Y-105205316D01*
X126840775Y-105404461D01*
X126840769Y-105404476D01*
X126779885Y-105618462D01*
X126779884Y-105618464D01*
X126759357Y-105839999D01*
X126759357Y-105840000D01*
X126779884Y-106061535D01*
X126779885Y-106061537D01*
X126840769Y-106275523D01*
X126840775Y-106275538D01*
X126939938Y-106474683D01*
X126939943Y-106474691D01*
X127074020Y-106652238D01*
X127238433Y-106802120D01*
X127238435Y-106802122D01*
X127238437Y-106802123D01*
X127238438Y-106802124D01*
X127280778Y-106828339D01*
X127327412Y-106880364D01*
X127339500Y-106933765D01*
X127339500Y-109852084D01*
X127319815Y-109919123D01*
X127267011Y-109964878D01*
X127258834Y-109968266D01*
X127131833Y-110015635D01*
X126880690Y-110152770D01*
X126880682Y-110152775D01*
X126651612Y-110324254D01*
X126651594Y-110324270D01*
X126449270Y-110526594D01*
X126449254Y-110526612D01*
X126277775Y-110755682D01*
X126277770Y-110755690D01*
X126140635Y-111006833D01*
X126040628Y-111274962D01*
X125979804Y-111554566D01*
X125959390Y-111839998D01*
X125959390Y-111840001D01*
X124965500Y-111840001D01*
X124965499Y-110292128D01*
X124959091Y-110232517D01*
X124929506Y-110153196D01*
X124908797Y-110097671D01*
X124908793Y-110097664D01*
X124822547Y-109982455D01*
X124822544Y-109982452D01*
X124707335Y-109896206D01*
X124707328Y-109896202D01*
X124572482Y-109845908D01*
X124572483Y-109845908D01*
X124512883Y-109839501D01*
X124512881Y-109839500D01*
X124512873Y-109839500D01*
X124512865Y-109839500D01*
X123714500Y-109839500D01*
X123647461Y-109819815D01*
X123601706Y-109767011D01*
X123590500Y-109715500D01*
X123590500Y-104183765D01*
X123610185Y-104116726D01*
X123630367Y-104096880D01*
X124811672Y-104096880D01*
X124927821Y-104168797D01*
X124927822Y-104168798D01*
X125135195Y-104249134D01*
X125353807Y-104290000D01*
X125576193Y-104290000D01*
X125794809Y-104249133D01*
X126002168Y-104168801D01*
X126002181Y-104168795D01*
X126118326Y-104096879D01*
X125465001Y-103443553D01*
X125465000Y-103443553D01*
X124811672Y-104096879D01*
X124811672Y-104096880D01*
X123630367Y-104096880D01*
X123649220Y-104078340D01*
X123691562Y-104052124D01*
X123855981Y-103902236D01*
X123990058Y-103724689D01*
X124089229Y-103525528D01*
X124095994Y-103501750D01*
X124133271Y-103442661D01*
X124196580Y-103413102D01*
X124265820Y-103422463D01*
X124319007Y-103467772D01*
X124334525Y-103501753D01*
X124341236Y-103525342D01*
X124341239Y-103525348D01*
X124440369Y-103724428D01*
X124456137Y-103745308D01*
X124456138Y-103745308D01*
X125082145Y-103119302D01*
X125111372Y-103119302D01*
X125140047Y-103232538D01*
X125203936Y-103330327D01*
X125296115Y-103402072D01*
X125406595Y-103440000D01*
X125494005Y-103440000D01*
X125580216Y-103425614D01*
X125682947Y-103370019D01*
X125762060Y-103284079D01*
X125808982Y-103177108D01*
X125816200Y-103090000D01*
X125818553Y-103090000D01*
X126473861Y-103745308D01*
X126489631Y-103724425D01*
X126489633Y-103724422D01*
X126588759Y-103525350D01*
X126649621Y-103311439D01*
X126670141Y-103090000D01*
X126670141Y-103089999D01*
X126649621Y-102868560D01*
X126588759Y-102654649D01*
X126489635Y-102455580D01*
X126489630Y-102455572D01*
X126473860Y-102434690D01*
X125818553Y-103089999D01*
X125818553Y-103090000D01*
X125816200Y-103090000D01*
X125818628Y-103060698D01*
X125789953Y-102947462D01*
X125726064Y-102849673D01*
X125633885Y-102777928D01*
X125523405Y-102740000D01*
X125435995Y-102740000D01*
X125349784Y-102754386D01*
X125247053Y-102809981D01*
X125167940Y-102895921D01*
X125121018Y-103002892D01*
X125111372Y-103119302D01*
X125082145Y-103119302D01*
X125111447Y-103090000D01*
X124456138Y-102434691D01*
X124456137Y-102434691D01*
X124440368Y-102455574D01*
X124341239Y-102654651D01*
X124341238Y-102654652D01*
X124334525Y-102678248D01*
X124297245Y-102737340D01*
X124233935Y-102766898D01*
X124164696Y-102757535D01*
X124111510Y-102712224D01*
X124095995Y-102678253D01*
X124089229Y-102654472D01*
X123990188Y-102455572D01*
X123990061Y-102455316D01*
X123990056Y-102455308D01*
X123855979Y-102277761D01*
X123691563Y-102127877D01*
X123691562Y-102127876D01*
X123649222Y-102101660D01*
X123632603Y-102083119D01*
X124811671Y-102083119D01*
X125465000Y-102736447D01*
X125465001Y-102736447D01*
X126118327Y-102083119D01*
X126002178Y-102011202D01*
X126002177Y-102011201D01*
X125794804Y-101930865D01*
X125576193Y-101890000D01*
X125353807Y-101890000D01*
X125135195Y-101930865D01*
X124927824Y-102011200D01*
X124927823Y-102011201D01*
X124811671Y-102083119D01*
X123632603Y-102083119D01*
X123602587Y-102049631D01*
X123590500Y-101996233D01*
X123590500Y-84464499D01*
X123610185Y-84397460D01*
X123662989Y-84351705D01*
X123714500Y-84340499D01*
X124512871Y-84340499D01*
X124512872Y-84340499D01*
X124572483Y-84334091D01*
X124707331Y-84283796D01*
X124822546Y-84197546D01*
X124908796Y-84082331D01*
X124959091Y-83947483D01*
X124965500Y-83887873D01*
X124965499Y-80792128D01*
X124959091Y-80732517D01*
X124929506Y-80653196D01*
X124908797Y-80597671D01*
X124908793Y-80597664D01*
X124822547Y-80482455D01*
X124822544Y-80482452D01*
X124707335Y-80396206D01*
X124707328Y-80396202D01*
X124572482Y-80345908D01*
X124572483Y-80345908D01*
X124512883Y-80339501D01*
X124512881Y-80339500D01*
X124512873Y-80339500D01*
X124512864Y-80339500D01*
X121417129Y-80339500D01*
X121417123Y-80339501D01*
X121357516Y-80345908D01*
X121222671Y-80396202D01*
X121222664Y-80396206D01*
X121107455Y-80482452D01*
X121107452Y-80482455D01*
X121021206Y-80597664D01*
X121021202Y-80597671D01*
X120970908Y-80732517D01*
X120964501Y-80792116D01*
X120964501Y-80792123D01*
X120964500Y-80792135D01*
X120964500Y-83887870D01*
X120964501Y-83887876D01*
X120970908Y-83947483D01*
X121021202Y-84082328D01*
X121021206Y-84082335D01*
X121107452Y-84197544D01*
X121107455Y-84197547D01*
X121222664Y-84283793D01*
X121222671Y-84283797D01*
X121357517Y-84334091D01*
X121357516Y-84334091D01*
X121364444Y-84334835D01*
X121417127Y-84340500D01*
X122215500Y-84340499D01*
X122282539Y-84360183D01*
X122328294Y-84412987D01*
X122339500Y-84464499D01*
X122339500Y-101996233D01*
X122319815Y-102063272D01*
X122280778Y-102101660D01*
X122238436Y-102127877D01*
X122074020Y-102277761D01*
X121939943Y-102455308D01*
X121939938Y-102455316D01*
X121840775Y-102654461D01*
X121840769Y-102654476D01*
X121779885Y-102868462D01*
X121779884Y-102868464D01*
X121759357Y-103089999D01*
X121759357Y-103090000D01*
X121779884Y-103311535D01*
X121779885Y-103311537D01*
X121840769Y-103525523D01*
X121840775Y-103525538D01*
X121939938Y-103724683D01*
X121939943Y-103724691D01*
X122074020Y-103902238D01*
X122238433Y-104052120D01*
X122238435Y-104052122D01*
X122238437Y-104052123D01*
X122238438Y-104052124D01*
X122280778Y-104078339D01*
X122327412Y-104130364D01*
X122339500Y-104183765D01*
X122339500Y-109715500D01*
X122319815Y-109782539D01*
X122267011Y-109828294D01*
X122215500Y-109839500D01*
X121417129Y-109839500D01*
X121417123Y-109839501D01*
X121357516Y-109845908D01*
X121222671Y-109896202D01*
X121222664Y-109896206D01*
X121107455Y-109982452D01*
X121107452Y-109982455D01*
X121021206Y-110097664D01*
X121021202Y-110097671D01*
X120970908Y-110232517D01*
X120964501Y-110292116D01*
X120964501Y-110292123D01*
X120964500Y-110292135D01*
X120964500Y-113387870D01*
X112965500Y-113387870D01*
X112965500Y-100078173D01*
X113001833Y-84464499D01*
X113020738Y-76340003D01*
X113609669Y-76340003D01*
X113628976Y-76671484D01*
X113628977Y-76671495D01*
X113686631Y-76998467D01*
X113686634Y-76998481D01*
X113781866Y-77316580D01*
X113913379Y-77621461D01*
X113913385Y-77621474D01*
X114079406Y-77909031D01*
X114277678Y-78175356D01*
X114277683Y-78175362D01*
X114277690Y-78175371D01*
X114505553Y-78416893D01*
X114689689Y-78571400D01*
X114759912Y-78630325D01*
X114759920Y-78630331D01*
X115037330Y-78812787D01*
X115037334Y-78812789D01*
X115334061Y-78961811D01*
X115646082Y-79075377D01*
X115646088Y-79075378D01*
X115646090Y-79075379D01*
X115969161Y-79151949D01*
X115969168Y-79151950D01*
X115969177Y-79151952D01*
X116298977Y-79190500D01*
X116298984Y-79190500D01*
X116631016Y-79190500D01*
X116631023Y-79190500D01*
X116960823Y-79151952D01*
X116960832Y-79151949D01*
X116960838Y-79151949D01*
X117221445Y-79090183D01*
X117283918Y-79075377D01*
X117595939Y-78961811D01*
X117892666Y-78812789D01*
X118170085Y-78630327D01*
X118424447Y-78416893D01*
X118652310Y-78175371D01*
X118850594Y-77909030D01*
X119016617Y-77621470D01*
X119148133Y-77316581D01*
X119243365Y-76998485D01*
X119301024Y-76671484D01*
X119320331Y-76340003D01*
X171609669Y-76340003D01*
X171628976Y-76671484D01*
X171628977Y-76671495D01*
X171686631Y-76998467D01*
X171686634Y-76998481D01*
X171781866Y-77316580D01*
X171913379Y-77621461D01*
X171913385Y-77621474D01*
X172079406Y-77909031D01*
X172277678Y-78175356D01*
X172277683Y-78175362D01*
X172277690Y-78175371D01*
X172505553Y-78416893D01*
X172689689Y-78571400D01*
X172759912Y-78630325D01*
X172759920Y-78630331D01*
X173037330Y-78812787D01*
X173037334Y-78812789D01*
X173334061Y-78961811D01*
X173646082Y-79075377D01*
X173646088Y-79075378D01*
X173646090Y-79075379D01*
X173969161Y-79151949D01*
X173969168Y-79151950D01*
X173969177Y-79151952D01*
X174298977Y-79190500D01*
X174298984Y-79190500D01*
X174631016Y-79190500D01*
X174631023Y-79190500D01*
X174960823Y-79151952D01*
X174960832Y-79151949D01*
X174960838Y-79151949D01*
X175221445Y-79090183D01*
X175283918Y-79075377D01*
X175595939Y-78961811D01*
X175892666Y-78812789D01*
X176170085Y-78630327D01*
X176424447Y-78416893D01*
X176652310Y-78175371D01*
X176850594Y-77909030D01*
X177016617Y-77621470D01*
X177148133Y-77316581D01*
X177243365Y-76998485D01*
X177301024Y-76671484D01*
X177320331Y-76340000D01*
X177301024Y-76008516D01*
X177243365Y-75681515D01*
X177148133Y-75363419D01*
X177016617Y-75058530D01*
X176850594Y-74770970D01*
X176850593Y-74770968D01*
X176652321Y-74504643D01*
X176652314Y-74504635D01*
X176652310Y-74504629D01*
X176424447Y-74263107D01*
X176262153Y-74126926D01*
X176170087Y-74049674D01*
X176170079Y-74049668D01*
X175892669Y-73867212D01*
X175595946Y-73718192D01*
X175595940Y-73718189D01*
X175283930Y-73604627D01*
X175283909Y-73604620D01*
X174960838Y-73528050D01*
X174960823Y-73528048D01*
X174631023Y-73489500D01*
X174298977Y-73489500D01*
X174010402Y-73523229D01*
X173969176Y-73528048D01*
X173969161Y-73528050D01*
X173646090Y-73604620D01*
X173646069Y-73604627D01*
X173334059Y-73718189D01*
X173334053Y-73718192D01*
X173037330Y-73867212D01*
X172759920Y-74049668D01*
X172759912Y-74049674D01*
X172553936Y-74222508D01*
X172505553Y-74263107D01*
X172277690Y-74504629D01*
X172277687Y-74504632D01*
X172277685Y-74504635D01*
X172277678Y-74504643D01*
X172079406Y-74770968D01*
X171913385Y-75058525D01*
X171913379Y-75058538D01*
X171781866Y-75363419D01*
X171686634Y-75681518D01*
X171686631Y-75681532D01*
X171628977Y-76008504D01*
X171628976Y-76008515D01*
X171609669Y-76339996D01*
X171609669Y-76340003D01*
X119320331Y-76340003D01*
X119320331Y-76340000D01*
X119301024Y-76008516D01*
X119243365Y-75681515D01*
X119148133Y-75363419D01*
X119016617Y-75058530D01*
X118850594Y-74770970D01*
X118850593Y-74770968D01*
X118652321Y-74504643D01*
X118652314Y-74504635D01*
X118652310Y-74504629D01*
X118424447Y-74263107D01*
X118262153Y-74126926D01*
X118170087Y-74049674D01*
X118170079Y-74049668D01*
X117892669Y-73867212D01*
X117595946Y-73718192D01*
X117595940Y-73718189D01*
X117283930Y-73604627D01*
X117283909Y-73604620D01*
X116960838Y-73528050D01*
X116960823Y-73528048D01*
X116631023Y-73489500D01*
X116298977Y-73489500D01*
X116010402Y-73523229D01*
X115969176Y-73528048D01*
X115969161Y-73528050D01*
X115646090Y-73604620D01*
X115646069Y-73604627D01*
X115334059Y-73718189D01*
X115334053Y-73718192D01*
X115037330Y-73867212D01*
X114759920Y-74049668D01*
X114759912Y-74049674D01*
X114553936Y-74222508D01*
X114505553Y-74263107D01*
X114277690Y-74504629D01*
X114277687Y-74504632D01*
X114277685Y-74504635D01*
X114277678Y-74504643D01*
X114079406Y-74770968D01*
X113913385Y-75058525D01*
X113913379Y-75058538D01*
X113781866Y-75363419D01*
X113686634Y-75681518D01*
X113686631Y-75681532D01*
X113628977Y-76008504D01*
X113628976Y-76008515D01*
X113609669Y-76339996D01*
X113609669Y-76340003D01*
X113020738Y-76340003D01*
X113029757Y-72464209D01*
X113049598Y-72397218D01*
X113102508Y-72351586D01*
X113153757Y-72340500D01*
X156692559Y-72340500D01*
X177840674Y-72369799D01*
G37*
%TD.AperFunction*%
%TD*%
M02*
